<svg width="372" height="165" viewBox="0 0 372 165" fill="none" xmlns="http://www.w3.org/2000/svg">
<path d="M150.248 93.749C143.786 93.749 139.207 91.4412 136.512 86.8255L141.718 82.4499C143.897 85.6255 146.814 87.2317 150.469 87.2686C152.463 87.2686 154.07 86.8625 155.288 86.0501C156.544 85.2378 157.171 84.1485 157.171 82.7822C157.171 81.9699 156.802 81.1945 156.063 80.456C155.325 79.7175 154.457 79.1082 153.46 78.6282C152.463 78.1112 151.06 77.4466 149.251 76.6342C149.103 76.5604 148.974 76.505 148.863 76.4681C148.789 76.4311 148.697 76.3942 148.586 76.3573C145.669 75.0649 143.546 73.5694 142.217 71.8709C140.887 70.1354 140.26 68.0491 140.333 65.6121C140.407 62.4365 141.57 59.9256 143.823 58.0794C146.075 56.2331 149.14 55.31 153.017 55.31C158.851 55.31 162.932 57.3593 165.258 61.458L159.941 65.3351C158.353 62.9719 156.082 61.7903 153.128 61.7903C149.657 61.7903 147.885 63.0273 147.811 65.5013C147.811 66.8675 148.438 68.0307 149.694 68.9907C150.986 69.9139 153.128 71.0401 156.119 72.3694C161.953 74.8434 164.815 78.4066 164.704 83.0592C164.63 86.3086 163.282 88.9118 160.661 90.8688C158.039 92.7889 154.568 93.749 150.248 93.749ZM186.98 83.3915L189.251 85.9947C185.78 91.1642 181.534 93.749 176.512 93.749C173.816 93.749 171.896 92.9736 170.752 91.4227C169.644 89.8719 169.348 87.4163 169.865 84.0562L171.582 73.2002H168.148L168.868 68.603H172.358L173.687 60.2395L181.109 59.5748L179.669 68.603H184.875L184.155 73.2002H178.949L177.398 83.1146C177.14 84.9978 177.195 86.3271 177.564 87.1025C177.97 87.8779 178.764 88.2656 179.946 88.2656C182.715 88.1918 185.06 86.5671 186.98 83.3915ZM195.325 93.749C192.593 93.749 190.488 92.9182 189.011 91.2566C187.571 89.558 186.851 87.1025 186.851 83.89C186.851 79.1267 188.199 75.268 190.894 72.314C193.59 69.36 197.171 67.883 201.639 67.883C203.153 67.883 204.963 68.123 207.067 68.603L214.157 67.883L211.498 84.3331C211.277 85.7363 211.277 86.7517 211.498 87.3794C211.72 87.9702 212.218 88.2656 212.994 88.2656C213.991 88.2656 215.062 87.8225 216.206 86.9363C217.388 86.0132 218.385 84.8316 219.197 83.3915L221.468 85.9947C217.997 91.1642 214.046 93.749 209.615 93.749C206.624 93.749 204.87 92.4197 204.353 89.7611C201.658 92.4197 198.648 93.749 195.325 93.749ZM197.984 88.2656C200.015 88.2656 202.027 87.2133 204.021 85.1085L205.793 73.9202C204.796 73.7356 203.67 73.6433 202.415 73.6433C199.867 73.6433 197.873 74.5295 196.433 76.3019C195.03 78.0374 194.328 80.4375 194.328 83.5023C194.328 86.6778 195.547 88.2656 197.984 88.2656ZM245.508 83.3915L247.834 85.9947C244.437 91.1642 240.006 93.749 234.541 93.749C231.809 93.749 229.704 93.0843 228.227 91.755C226.75 90.4257 226.012 88.5056 226.012 85.9947C226.012 82.2284 227.581 77.9635 230.719 73.2002C228.873 73.1633 226.769 72.794 224.405 72.0924C224.811 77.2989 223.833 81.933 221.47 85.9947L219.143 83.3915C221.248 79.5513 221.821 75.3603 220.86 70.8185C220.787 70.7816 220.491 70.6708 219.974 70.4862C219.494 70.2646 219.162 70.08 218.977 69.9323L219.864 64.5597C224.147 67.1076 230.498 68.4553 238.917 68.603L237.588 73.8648C234.781 77.705 233.378 81.2129 233.378 84.3885C233.378 86.9732 234.707 88.2656 237.366 88.2656C238.954 88.2656 240.486 87.841 241.963 86.9917C243.477 86.1055 244.659 84.9054 245.508 83.3915ZM255.455 93.749C251.947 93.749 248.162 93.3428 244.1 92.5305L250.138 54.313L257.615 53.6484L254.735 71.8709C257.984 69.2123 261.067 67.883 263.985 67.883C269.302 67.883 271.628 71.4278 270.963 78.5174C270.557 82.7638 269.357 86.1055 267.363 88.5426C268.176 88.801 269.191 88.838 270.409 88.6533C272.994 88.2102 275.154 86.4563 276.89 83.3915L279.216 85.9947C276.631 90.0565 273.437 92.3274 269.634 92.8074C267.492 93.029 265.369 92.752 263.264 91.9766C261.086 93.1582 258.483 93.749 255.455 93.749ZM256.009 88.2102C258.04 88.1733 259.701 87.4348 260.994 85.9947C262.323 84.5177 263.135 82.3761 263.431 79.5698C263.874 75.5449 262.858 73.5325 260.384 73.5325C258.76 73.5325 256.618 74.6033 253.959 76.745L252.242 87.7117C253.609 88.0441 254.864 88.2102 256.009 88.2102ZM302.28 83.3915L304.606 85.9947C301.061 91.1642 295.966 93.749 289.319 93.749C285.294 93.749 282.193 92.752 280.014 90.7581C277.872 88.7641 276.802 85.9393 276.802 82.2838C276.802 78.0743 278.075 74.6218 280.623 71.9263C283.171 69.2307 286.439 67.883 290.427 67.883C293.196 67.883 295.393 68.5476 297.018 69.8769C298.68 71.1693 299.492 72.9233 299.455 75.1388C299.418 77.9451 298.126 80.216 295.578 81.9514C293.03 83.65 289.615 84.5362 285.331 84.61C285.737 85.8655 286.494 86.8625 287.602 87.601C288.71 88.3395 290.058 88.7087 291.645 88.7087C296.409 88.7087 299.954 86.9363 302.28 83.3915ZM290.095 73.311C288.47 73.311 287.122 74.0125 286.051 75.4157C285.017 76.7819 284.427 78.5912 284.279 80.8437C286.937 80.8437 289.042 80.4006 290.593 79.5144C292.181 78.6282 292.993 77.4281 293.03 75.9142C293.067 75.0649 292.809 74.4187 292.255 73.9756C291.738 73.5325 291.018 73.311 290.095 73.311ZM349.248 83.3915L351.519 85.9947C348.048 91.1642 344.078 93.749 339.61 93.749C337.395 93.749 335.788 93.1028 334.792 91.8104C333.831 90.4811 333.555 88.561 333.961 86.0501L335.401 77.465C335.807 74.8064 335.032 73.4771 333.075 73.4771C331.487 73.4771 329.419 74.4003 326.871 76.2465L324.212 93.0843H316.846L319.338 77.465C319.781 74.8064 319.025 73.4771 317.067 73.4771C315.443 73.4771 313.338 74.4187 310.753 76.3019L308.095 93.0843H300.728L304.605 68.603L312.083 67.883L311.473 71.5386C315.092 69.1015 318.268 67.883 321 67.883C324.323 67.883 326.299 69.2492 326.926 71.9817C330.804 69.2492 334.182 67.883 337.062 67.883C339.352 67.883 341.013 68.5846 342.047 69.9877C343.118 71.3539 343.45 73.2925 343.044 75.8034L341.604 84.4993C341.198 87.0102 341.715 88.2656 343.155 88.2656C344.152 88.2656 345.204 87.8225 346.312 86.9363C347.42 86.0501 348.398 84.8685 349.248 83.3915Z" fill="white"/>
<path d="M140.343 114.643C139.639 114.643 139.028 114.491 138.509 114.185C137.989 113.872 137.591 113.425 137.314 112.842C137.037 112.252 136.898 111.556 136.898 110.752C136.898 109.956 137.037 109.267 137.314 108.684C137.591 108.102 137.989 107.657 138.509 107.352C139.028 107.039 139.639 106.883 140.343 106.883C140.869 106.883 141.349 106.968 141.783 107.139C142.224 107.302 142.604 107.547 142.924 107.874L142.647 108.396C142.284 108.07 141.922 107.835 141.559 107.693C141.196 107.544 140.791 107.469 140.343 107.469C139.468 107.469 138.789 107.757 138.306 108.333C137.822 108.901 137.581 109.708 137.581 110.752C137.581 111.804 137.819 112.618 138.295 113.194C138.779 113.769 139.461 114.057 140.343 114.057C140.791 114.057 141.196 113.986 141.559 113.844C141.922 113.695 142.284 113.457 142.647 113.13L142.924 113.652C142.604 113.979 142.224 114.228 141.783 114.398C141.349 114.562 140.869 114.643 140.343 114.643Z" fill="white"/>
<path d="M150.47 114.644C149.503 114.644 148.767 114.392 148.262 113.888C147.765 113.376 147.516 112.626 147.516 111.638V106.969H148.177V111.713C148.177 113.276 148.941 114.058 150.47 114.058C151.217 114.058 151.782 113.863 152.166 113.472C152.557 113.074 152.752 112.488 152.752 111.713V106.969H153.403V111.638C153.403 112.626 153.154 113.376 152.657 113.888C152.159 114.392 151.43 114.644 150.47 114.644Z" fill="white"/>
<path d="M158.398 106.969H159.059V114.559H158.398V106.969Z" fill="white"/>
<path d="M164.117 106.969H166.559C167.768 106.969 168.699 107.296 169.354 107.95C170.008 108.604 170.335 109.538 170.335 110.753C170.335 111.969 170.004 112.907 169.343 113.568C168.689 114.229 167.761 114.559 166.559 114.559H164.117V106.969ZM166.527 113.984C167.558 113.984 168.333 113.713 168.852 113.173C169.371 112.626 169.631 111.819 169.631 110.753C169.631 108.614 168.596 107.545 166.527 107.545H164.778V113.984H166.527Z" fill="white"/>
<path d="M179.887 112.534H175.791L174.917 114.559H174.234L177.541 106.969H178.138L181.434 114.559H180.751L179.887 112.534ZM179.631 111.958L177.839 107.769L176.037 111.958H179.631Z" fill="white"/>
<path d="M191.733 106.969V114.559H191.221L186.4 108.088V114.559H185.781V106.969H186.304L191.114 113.44V106.969H191.733Z" fill="white"/>
<path d="M196.789 106.969H199.232C200.441 106.969 201.372 107.296 202.026 107.95C202.68 108.604 203.007 109.538 203.007 110.753C203.007 111.969 202.677 112.907 202.016 113.568C201.361 114.229 200.434 114.559 199.232 114.559H196.789V106.969ZM199.2 113.984C200.231 113.984 201.006 113.713 201.525 113.173C202.044 112.626 202.304 111.819 202.304 110.753C202.304 108.614 201.269 107.545 199.2 107.545H197.451V113.984H199.2Z" fill="white"/>
<path d="M210.861 114.643C210.171 114.643 209.571 114.487 209.059 114.174C208.554 113.862 208.163 113.414 207.885 112.831C207.615 112.248 207.48 111.559 207.48 110.763C207.48 109.967 207.615 109.278 207.885 108.695C208.156 108.112 208.543 107.664 209.048 107.352C209.56 107.039 210.164 106.883 210.861 106.883C211.558 106.883 212.162 107.039 212.674 107.352C213.186 107.664 213.577 108.112 213.848 108.695C214.118 109.271 214.253 109.956 214.253 110.752C214.253 111.548 214.114 112.241 213.837 112.831C213.567 113.414 213.176 113.862 212.664 114.174C212.159 114.487 211.558 114.643 210.861 114.643ZM210.861 114.057C211.714 114.057 212.376 113.769 212.845 113.194C213.321 112.618 213.56 111.804 213.56 110.752C213.56 109.701 213.325 108.89 212.856 108.322C212.386 107.753 211.722 107.469 210.861 107.469C210.008 107.469 209.343 107.757 208.867 108.333C208.397 108.901 208.163 109.708 208.163 110.752C208.163 111.797 208.397 112.611 208.867 113.194C209.343 113.769 210.008 114.057 210.861 114.057Z" fill="white"/>
<path d="M224.828 106.969H227.271C228.479 106.969 229.411 107.296 230.065 107.95C230.719 108.604 231.046 109.538 231.046 110.753C231.046 111.969 230.716 112.907 230.054 113.568C229.4 114.229 228.472 114.559 227.271 114.559H224.828V106.969ZM227.239 113.984C228.27 113.984 229.045 113.713 229.564 113.173C230.083 112.626 230.342 111.819 230.342 110.753C230.342 108.614 229.308 107.545 227.239 107.545H225.489V113.984H227.239Z" fill="white"/>
<path d="M240.597 112.534H236.502L235.627 114.559H234.945L238.251 106.969H238.848L242.144 114.559H241.461L240.597 112.534ZM240.342 111.958L238.55 107.769L236.747 111.958H240.342Z" fill="white"/>
<path d="M254.664 114.643C254.066 114.643 253.537 114.565 253.074 114.409C252.619 114.245 252.214 113.993 251.859 113.652L252.136 113.13C252.513 113.464 252.893 113.702 253.277 113.844C253.668 113.986 254.13 114.057 254.664 114.057C255.304 114.057 255.801 113.926 256.157 113.663C256.512 113.4 256.69 113.03 256.69 112.554C256.69 112.277 256.601 112.053 256.423 111.882C256.253 111.705 256.032 111.566 255.762 111.467C255.499 111.367 255.147 111.268 254.706 111.168C254.123 111.04 253.647 110.909 253.277 110.774C252.914 110.632 252.609 110.422 252.36 110.145C252.111 109.868 251.987 109.498 251.987 109.036C251.987 108.61 252.097 108.233 252.317 107.906C252.538 107.579 252.85 107.327 253.256 107.149C253.668 106.972 254.145 106.883 254.685 106.883C255.204 106.883 255.684 106.968 256.125 107.139C256.566 107.302 256.946 107.547 257.266 107.874L256.989 108.396C256.633 108.077 256.271 107.842 255.901 107.693C255.531 107.544 255.126 107.469 254.685 107.469C254.045 107.469 253.544 107.608 253.181 107.885C252.826 108.162 252.648 108.542 252.648 109.025C252.648 109.445 252.804 109.757 253.117 109.964C253.43 110.17 253.889 110.344 254.493 110.486L254.802 110.561C255.371 110.696 255.823 110.827 256.157 110.955C256.491 111.083 256.775 111.275 257.01 111.531C257.245 111.786 257.362 112.128 257.362 112.554C257.362 112.966 257.252 113.332 257.031 113.652C256.811 113.965 256.495 114.21 256.082 114.388C255.677 114.558 255.204 114.643 254.664 114.643Z" fill="white"/>
<path d="M264.838 114.644C263.871 114.644 263.135 114.392 262.63 113.888C262.132 113.376 261.883 112.626 261.883 111.638V106.969H262.545V111.713C262.545 113.276 263.309 114.058 264.838 114.058C265.584 114.058 266.149 113.863 266.533 113.472C266.925 113.074 267.12 112.488 267.12 111.713V106.969H267.771V111.638C267.771 112.626 267.522 113.376 267.024 113.888C266.526 114.392 265.798 114.644 264.838 114.644Z" fill="white"/>
<path d="M277.669 112.534H273.574L272.699 114.559H272.016L275.323 106.969H275.92L279.216 114.559H278.533L277.669 112.534ZM277.413 111.958L275.621 107.769L273.819 111.958H277.413Z" fill="white"/>
<path d="M291.727 114.643C291.13 114.643 290.6 114.565 290.138 114.409C289.683 114.245 289.278 113.993 288.922 113.652L289.2 113.13C289.576 113.464 289.957 113.702 290.341 113.844C290.732 113.986 291.194 114.057 291.727 114.057C292.367 114.057 292.865 113.926 293.221 113.663C293.576 113.4 293.754 113.03 293.754 112.554C293.754 112.277 293.665 112.053 293.487 111.882C293.316 111.705 293.096 111.566 292.826 111.467C292.563 111.367 292.211 111.268 291.77 111.168C291.187 111.04 290.711 110.909 290.341 110.774C289.978 110.632 289.672 110.422 289.424 110.145C289.175 109.868 289.05 109.498 289.05 109.036C289.05 108.61 289.16 108.233 289.381 107.906C289.601 107.579 289.914 107.327 290.319 107.149C290.732 106.972 291.208 106.883 291.749 106.883C292.268 106.883 292.748 106.968 293.189 107.139C293.629 107.302 294.01 107.547 294.33 107.874L294.052 108.396C293.697 108.077 293.334 107.842 292.965 107.693C292.595 107.544 292.189 107.469 291.749 107.469C291.109 107.469 290.607 107.608 290.245 107.885C289.889 108.162 289.712 108.542 289.712 109.025C289.712 109.445 289.868 109.757 290.181 109.964C290.494 110.17 290.952 110.344 291.557 110.486L291.866 110.561C292.435 110.696 292.886 110.827 293.221 110.955C293.555 111.083 293.839 111.275 294.074 111.531C294.308 111.786 294.426 112.128 294.426 112.554C294.426 112.966 294.316 113.332 294.095 113.652C293.875 113.965 293.558 114.21 293.146 114.388C292.741 114.558 292.268 114.643 291.727 114.643Z" fill="white"/>
<path d="M303.942 112.534H299.846L298.972 114.559H298.289L301.595 106.969H302.193L305.488 114.559H304.806L303.942 112.534ZM303.686 111.958L301.894 107.769L300.091 111.958H303.686Z" fill="white"/>
<path d="M312.688 114.646C311.721 114.646 310.985 114.394 310.48 113.89C309.983 113.378 309.734 112.628 309.734 111.64V106.971H310.395V111.715C310.395 113.278 311.159 114.06 312.688 114.06C313.435 114.06 314 113.865 314.384 113.474C314.775 113.076 314.971 112.49 314.971 111.715V106.971H315.621V111.64C315.621 112.628 315.372 113.378 314.875 113.89C314.377 114.394 313.648 114.646 312.688 114.646ZM312.432 106.321L313.509 104.711H314.309L312.933 106.321H312.432Z" fill="white"/>
<path d="M320.617 106.969H323.059C324.268 106.969 325.2 107.296 325.854 107.95C326.508 108.604 326.835 109.538 326.835 110.753C326.835 111.969 326.504 112.907 325.843 113.568C325.189 114.229 324.261 114.559 323.059 114.559H320.617V106.969ZM323.027 113.984C324.058 113.984 324.833 113.713 325.353 113.173C325.872 112.626 326.131 111.819 326.131 110.753C326.131 108.614 325.097 107.545 323.027 107.545H321.278V113.984H323.027Z" fill="white"/>
<path d="M331.594 106.969H336.276V107.534H332.244V110.412H336.063V110.999H332.244V113.994H336.276V114.559H331.594V106.969Z" fill="white"/>
<path d="M26.6595 65.3885L86.4856 62.0234L106.123 116.459C107.602 120.558 103.112 124.243 99.3796 121.993L23.9044 76.4955C18.8586 73.4538 20.7771 65.7194 26.6595 65.3885Z" stroke="white" stroke-width="1.62249"/>
<path d="M72.7243 105.774L25.1271 75.094C21.3568 72.6638 22.9019 66.8285 27.3808 66.5826L122.951 61.336C127.523 61.0849 129.644 66.9168 125.979 69.6617L78.006 105.588C76.4573 106.748 74.3505 106.822 72.7243 105.774Z" stroke="white" stroke-width="1.62249"/>
<path d="M106.263 116.573L77.8854 38.055C76.3926 33.9247 70.5245 34.0015 69.1404 38.1696L51.3672 91.69L99.4385 122.059C103.165 124.413 107.761 120.718 106.263 116.573Z" stroke="white" stroke-width="1.62249"/>
<path d="M123.066 61.3429L60.3119 64.5787L41.186 122.531C39.768 126.828 44.7235 130.397 48.3496 127.691L126.073 69.6738C129.739 66.9371 127.635 61.1073 123.066 61.3429Z" stroke="white" stroke-width="1.62249"/>
<mask id="mask0_347_25045" style="mask-type:alpha" maskUnits="userSpaceOnUse" x="40" y="64" width="89" height="66">
<path fill-rule="evenodd" clip-rule="evenodd" d="M128.42 64.125C129.168 66.2041 128.708 68.7178 126.556 70.3244L48.8323 128.341C44.5707 131.523 38.7465 127.328 40.4131 122.278L50.2851 92.3651L128.42 64.125Z" fill="white"/>
</mask>
<g mask="url(#mask0_347_25045)">
<path fill-rule="evenodd" clip-rule="evenodd" d="M128.42 64.125C129.168 66.2041 128.708 68.7178 126.556 70.3244L48.8323 128.341C44.5707 131.523 38.7465 127.328 40.4131 122.278L50.2851 92.3651L128.42 64.125Z" fill="white"/>
<path d="M128.419 64.1252L127.868 62.5993L129.396 62.0469L129.946 63.5761L128.419 64.1252ZM126.555 70.3246L127.525 71.6248L126.555 70.3246ZM48.8312 128.342L49.8018 129.643L48.8312 128.342ZM40.412 122.279L41.9528 122.787L40.412 122.279ZM50.284 92.3653L48.7433 91.8568L48.9905 91.1075L49.7325 90.8394L50.284 92.3653ZM129.946 63.5761C130.906 66.2457 130.316 69.5417 127.525 71.6248L125.584 69.0244C127.098 67.8942 127.428 66.1629 126.893 64.6742L129.946 63.5761ZM127.525 71.6248L49.8018 129.643L47.8607 127.042L125.584 69.0244L127.525 71.6248ZM49.8018 129.643C44.2689 133.773 36.7075 128.327 38.8713 121.77L41.9528 122.787C40.7833 126.331 44.8702 129.274 47.8607 127.042L49.8018 129.643ZM38.8713 121.77L48.7433 91.8568L51.8248 92.8737L41.9528 122.787L38.8713 121.77ZM49.7325 90.8394L127.868 62.5993L128.971 65.6511L50.8355 93.8912L49.7325 90.8394Z" fill="white"/>
</g>
</svg>
