<svg width="372" height="165" viewBox="0 0 372 165" fill="none" xmlns="http://www.w3.org/2000/svg">
<path d="M167.194 89.594C161.404 89.594 157.302 87.5262 154.887 83.3906L159.552 79.4701C161.504 82.3153 164.117 83.7545 167.393 83.7876C169.179 83.7876 170.618 83.4237 171.71 82.6958C172.835 81.968 173.398 80.992 173.398 79.7678C173.398 79.04 173.067 78.3452 172.405 77.6835C171.743 77.0218 170.966 76.4759 170.073 76.0458C169.179 75.5826 167.922 74.9871 166.301 74.2592C166.169 74.1931 166.053 74.1434 165.954 74.1104C165.887 74.0773 165.805 74.0442 165.705 74.0111C163.092 72.8531 161.189 71.5132 159.998 69.9913C158.807 68.4363 158.245 66.5671 158.311 64.3835C158.377 61.5382 159.419 59.2884 161.437 57.6342C163.456 55.98 166.202 55.1529 169.676 55.1529C174.903 55.1529 178.559 56.9891 180.643 60.6615L175.879 64.1353C174.456 62.0179 172.422 60.9592 169.775 60.9592C166.665 60.9592 165.077 62.0676 165.011 64.2842C165.011 65.5084 165.573 66.5505 166.698 67.4107C167.856 68.2378 169.775 69.2469 172.455 70.438C177.682 72.6546 180.246 75.8473 180.147 80.016C180.081 82.9274 178.873 85.2599 176.524 87.0134C174.175 88.7338 171.065 89.594 167.194 89.594Z" fill="#0C1F36"/>
<path d="M200.106 80.3137L202.141 82.6462C199.031 87.278 195.226 89.594 190.727 89.594C188.311 89.594 186.591 88.8992 185.565 87.5096C184.573 86.1201 184.308 83.9199 184.771 80.9092L186.31 71.1824H183.233L183.878 67.0633H187.005L188.196 59.5697L194.846 58.9741L193.555 67.0633H198.22L197.575 71.1824H192.91L191.521 80.0656C191.289 81.7529 191.339 82.944 191.67 83.6387C192.034 84.3335 192.745 84.6809 193.804 84.6809C196.285 84.6147 198.386 83.159 200.106 80.3137Z" fill="#0C1F36"/>
<path d="M207.583 89.594C205.135 89.594 203.249 88.8496 201.926 87.3607C200.635 85.8389 199.99 83.6387 199.99 80.7604C199.99 76.4924 201.198 73.0351 203.613 70.3883C206.028 67.7416 209.237 66.4182 213.241 66.4182C214.597 66.4182 216.218 66.6332 218.104 67.0633L224.456 66.4182L222.074 81.1574C221.876 82.4146 221.876 83.3244 222.074 83.8869C222.273 84.4162 222.719 84.6809 223.414 84.6809C224.307 84.6809 225.267 84.2839 226.292 83.4898C227.351 82.6627 228.244 81.604 228.972 80.3137L231.007 82.6462C227.897 87.278 224.357 89.594 220.387 89.594C217.707 89.594 216.136 88.4029 215.672 86.0208C213.257 88.4029 210.561 89.594 207.583 89.594ZM209.965 84.6809C211.785 84.6809 213.588 83.738 215.375 81.8522L216.963 71.8275C216.069 71.6621 215.06 71.5794 213.935 71.5794C211.653 71.5794 209.866 72.3734 208.576 73.9615C207.318 75.5165 206.69 77.667 206.69 80.413C206.69 83.2583 207.782 84.6809 209.965 84.6809Z" fill="#0C1F36"/>
<path d="M252.547 80.3137L254.631 82.6462C251.587 87.278 247.617 89.594 242.721 89.594C240.272 89.594 238.386 88.9984 237.063 87.8074C235.74 86.6163 235.078 84.8959 235.078 82.6462C235.078 79.2716 236.484 75.4503 239.296 71.1824C237.642 71.1493 235.756 70.8184 233.639 70.1898C234.003 74.8548 233.126 79.0069 231.009 82.6462L228.924 80.3137C230.81 76.8729 231.323 73.1178 230.463 69.0484C230.397 69.0153 230.132 68.9161 229.669 68.7506C229.239 68.5521 228.941 68.3867 228.775 68.2544L229.569 63.4406C233.407 65.7234 239.098 66.931 246.641 67.0633L245.45 71.7779C242.936 75.2187 241.678 78.3617 241.678 81.207C241.678 83.5229 242.869 84.6809 245.252 84.6809C246.674 84.6809 248.047 84.3004 249.371 83.5395C250.727 82.7454 251.786 81.6702 252.547 80.3137Z" fill="#0C1F36"/>
<path d="M261.459 89.594C258.316 89.594 254.925 89.23 251.285 88.5022L256.695 54.2596L263.394 53.6641L260.814 69.9913C263.725 67.6092 266.488 66.4182 269.102 66.4182C273.866 66.4182 275.95 69.5943 275.355 75.9466C274.991 79.7513 273.915 82.7454 272.129 84.929C272.857 85.1606 273.766 85.1937 274.858 85.0283C277.174 84.6313 279.11 83.0597 280.665 80.3137L282.749 82.6462C280.433 86.2855 277.571 88.3202 274.163 88.7503C272.245 88.9488 270.342 88.7007 268.456 88.0059C266.504 89.0646 264.172 89.594 261.459 89.594ZM261.955 84.6313C263.775 84.5982 265.264 83.9365 266.422 82.6462C267.613 81.3228 268.341 79.4039 268.605 76.8895C269.002 73.2832 268.092 71.4801 265.876 71.4801C264.42 71.4801 262.501 72.4396 260.119 74.3585L258.581 84.1846C259.805 84.4824 260.93 84.6313 261.955 84.6313Z" fill="#0C1F36"/>
<path d="M303.414 80.3137L305.498 82.6462C302.322 87.278 297.756 89.594 291.801 89.594C288.195 89.594 285.416 88.7007 283.464 86.9141C281.545 85.1275 280.586 82.5966 280.586 79.3212C280.586 75.5495 281.727 72.4561 284.01 70.0409C286.293 67.6258 289.221 66.4182 292.794 66.4182C295.275 66.4182 297.244 67.0137 298.699 68.2048C300.188 69.3627 300.916 70.9342 300.883 72.9193C300.85 75.4337 299.692 77.4684 297.409 79.0234C295.126 80.5453 292.066 81.3393 288.228 81.4055C288.592 82.5304 289.27 83.4237 290.263 84.0854C291.255 84.7471 292.463 85.0779 293.886 85.0779C298.153 85.0779 301.33 83.4898 303.414 80.3137ZM292.496 71.2816C291.04 71.2816 289.833 71.9102 288.873 73.1674C287.947 74.3916 287.417 76.0127 287.285 78.0309C289.667 78.0309 291.553 77.6339 292.943 76.8398C294.365 76.0458 295.093 74.9706 295.126 73.6141C295.159 72.8531 294.928 72.2742 294.431 71.8771C293.968 71.4801 293.323 71.2816 292.496 71.2816Z" fill="#0C1F36"/>
<path d="M345.497 80.3137L347.531 82.6462C344.422 87.278 340.865 89.594 336.862 89.594C334.877 89.594 333.437 89.015 332.544 87.857C331.684 86.666 331.436 84.9456 331.8 82.6958L333.09 75.0036C333.454 72.6215 332.759 71.4305 331.006 71.4305C329.583 71.4305 327.73 72.2576 325.447 73.9118L323.065 88.9984H316.465L318.698 75.0036C319.095 72.6215 318.417 71.4305 316.664 71.4305C315.208 71.4305 313.322 72.2742 311.006 73.9615L308.624 88.9984H302.024L305.497 67.0633L312.197 66.4182L311.651 69.6936C314.893 67.51 317.739 66.4182 320.187 66.4182C323.165 66.4182 324.935 67.6423 325.497 70.0906C328.971 67.6423 331.998 66.4182 334.579 66.4182C336.63 66.4182 338.119 67.0468 339.045 68.304C340.005 69.5281 340.302 71.2651 339.939 73.5148L338.648 81.3063C338.284 83.556 338.747 84.6809 340.038 84.6809C340.931 84.6809 341.874 84.2839 342.867 83.4898C343.859 82.6958 344.736 81.6371 345.497 80.3137Z" fill="#0C1F36"/>
<path d="M167.194 89.594C161.404 89.594 157.302 87.5262 154.887 83.3906L159.552 79.4701C161.504 82.3153 164.117 83.7545 167.393 83.7876C169.179 83.7876 170.618 83.4237 171.71 82.6958C172.835 81.968 173.398 80.992 173.398 79.7678C173.398 79.04 173.067 78.3452 172.405 77.6835C171.743 77.0218 170.966 76.4759 170.073 76.0458C169.179 75.5826 167.922 74.9871 166.301 74.2592C166.169 74.1931 166.053 74.1434 165.954 74.1104C165.887 74.0773 165.805 74.0442 165.705 74.0111C163.092 72.8531 161.189 71.5132 159.998 69.9913C158.807 68.4363 158.245 66.5671 158.311 64.3835C158.377 61.5382 159.419 59.2884 161.437 57.6342C163.456 55.98 166.202 55.1529 169.676 55.1529C174.903 55.1529 178.559 56.9891 180.643 60.6615L175.879 64.1353C174.456 62.0179 172.422 60.9592 169.775 60.9592C166.665 60.9592 165.077 62.0676 165.011 64.2842C165.011 65.5084 165.573 66.5505 166.698 67.4107C167.856 68.2378 169.775 69.2469 172.455 70.438C177.682 72.6546 180.246 75.8473 180.147 80.016C180.081 82.9274 178.873 85.2599 176.524 87.0134C174.175 88.7338 171.065 89.594 167.194 89.594Z" fill="#0C1F36"/>
<path d="M200.106 80.3137L202.141 82.6462C199.031 87.278 195.226 89.594 190.727 89.594C188.311 89.594 186.591 88.8992 185.565 87.5096C184.573 86.1201 184.308 83.9199 184.771 80.9092L186.31 71.1824H183.233L183.878 67.0633H187.005L188.196 59.5697L194.846 58.9741L193.555 67.0633H198.22L197.575 71.1824H192.91L191.521 80.0656C191.289 81.7529 191.339 82.944 191.67 83.6387C192.034 84.3335 192.745 84.6809 193.804 84.6809C196.285 84.6147 198.386 83.159 200.106 80.3137Z" fill="#0C1F36"/>
<path d="M207.583 89.594C205.135 89.594 203.249 88.8496 201.926 87.3607C200.635 85.8389 199.99 83.6387 199.99 80.7604C199.99 76.4924 201.198 73.0351 203.613 70.3883C206.028 67.7416 209.237 66.4182 213.241 66.4182C214.597 66.4182 216.218 66.6332 218.104 67.0633L224.456 66.4182L222.074 81.1574C221.876 82.4146 221.876 83.3244 222.074 83.8869C222.273 84.4162 222.719 84.6809 223.414 84.6809C224.307 84.6809 225.267 84.2839 226.292 83.4898C227.351 82.6627 228.244 81.604 228.972 80.3137L231.007 82.6462C227.897 87.278 224.357 89.594 220.387 89.594C217.707 89.594 216.136 88.4029 215.672 86.0208C213.257 88.4029 210.561 89.594 207.583 89.594ZM209.965 84.6809C211.785 84.6809 213.588 83.738 215.375 81.8522L216.963 71.8275C216.069 71.6621 215.06 71.5794 213.935 71.5794C211.653 71.5794 209.866 72.3734 208.576 73.9615C207.318 75.5165 206.69 77.667 206.69 80.413C206.69 83.2583 207.782 84.6809 209.965 84.6809Z" fill="#0C1F36"/>
<path d="M252.547 80.3137L254.631 82.6462C251.587 87.278 247.617 89.594 242.721 89.594C240.272 89.594 238.386 88.9984 237.063 87.8074C235.74 86.6163 235.078 84.8959 235.078 82.6462C235.078 79.2716 236.484 75.4503 239.296 71.1824C237.642 71.1493 235.756 70.8184 233.639 70.1898C234.003 74.8548 233.126 79.0069 231.009 82.6462L228.924 80.3137C230.81 76.8729 231.323 73.1178 230.463 69.0484C230.397 69.0153 230.132 68.9161 229.669 68.7506C229.239 68.5521 228.941 68.3867 228.775 68.2544L229.569 63.4406C233.407 65.7234 239.098 66.931 246.641 67.0633L245.45 71.7779C242.936 75.2187 241.678 78.3617 241.678 81.207C241.678 83.5229 242.869 84.6809 245.252 84.6809C246.674 84.6809 248.047 84.3004 249.371 83.5395C250.727 82.7454 251.786 81.6702 252.547 80.3137Z" fill="#0C1F36"/>
<path d="M261.459 89.594C258.316 89.594 254.925 89.23 251.285 88.5022L256.695 54.2596L263.394 53.6641L260.814 69.9913C263.725 67.6092 266.488 66.4182 269.102 66.4182C273.866 66.4182 275.95 69.5943 275.355 75.9466C274.991 79.7513 273.915 82.7454 272.129 84.929C272.857 85.1606 273.766 85.1937 274.858 85.0283C277.174 84.6313 279.11 83.0597 280.665 80.3137L282.749 82.6462C280.433 86.2855 277.571 88.3202 274.163 88.7503C272.245 88.9488 270.342 88.7007 268.456 88.0059C266.504 89.0646 264.172 89.594 261.459 89.594ZM261.955 84.6313C263.775 84.5982 265.264 83.9365 266.422 82.6462C267.613 81.3228 268.341 79.4039 268.605 76.8895C269.002 73.2832 268.092 71.4801 265.876 71.4801C264.42 71.4801 262.501 72.4396 260.119 74.3585L258.581 84.1846C259.805 84.4824 260.93 84.6313 261.955 84.6313Z" fill="#0C1F36"/>
<path d="M303.414 80.3137L305.498 82.6462C302.322 87.278 297.756 89.594 291.801 89.594C288.195 89.594 285.416 88.7007 283.464 86.9141C281.545 85.1275 280.586 82.5966 280.586 79.3212C280.586 75.5495 281.727 72.4561 284.01 70.0409C286.293 67.6258 289.221 66.4182 292.794 66.4182C295.275 66.4182 297.244 67.0137 298.699 68.2048C300.188 69.3627 300.916 70.9342 300.883 72.9193C300.85 75.4337 299.692 77.4684 297.409 79.0234C295.126 80.5453 292.066 81.3393 288.228 81.4055C288.592 82.5304 289.27 83.4237 290.263 84.0854C291.255 84.7471 292.463 85.0779 293.886 85.0779C298.153 85.0779 301.33 83.4898 303.414 80.3137ZM292.496 71.2816C291.04 71.2816 289.833 71.9102 288.873 73.1674C287.947 74.3916 287.417 76.0127 287.285 78.0309C289.667 78.0309 291.553 77.6339 292.943 76.8398C294.365 76.0458 295.093 74.9706 295.126 73.6141C295.159 72.8531 294.928 72.2742 294.431 71.8771C293.968 71.4801 293.323 71.2816 292.496 71.2816Z" fill="#0C1F36"/>
<path d="M345.497 80.3137L347.531 82.6462C344.422 87.278 340.865 89.594 336.862 89.594C334.877 89.594 333.437 89.015 332.544 87.857C331.684 86.666 331.436 84.9456 331.8 82.6958L333.09 75.0036C333.454 72.6215 332.759 71.4305 331.006 71.4305C329.583 71.4305 327.73 72.2576 325.447 73.9118L323.065 88.9984H316.465L318.698 75.0036C319.095 72.6215 318.417 71.4305 316.664 71.4305C315.208 71.4305 313.322 72.2742 311.006 73.9615L308.624 88.9984H302.024L305.497 67.0633L312.197 66.4182L311.651 69.6936C314.893 67.51 317.739 66.4182 320.187 66.4182C323.165 66.4182 324.935 67.6423 325.497 70.0906C328.971 67.6423 331.998 66.4182 334.579 66.4182C336.63 66.4182 338.119 67.0468 339.045 68.304C340.005 69.5281 340.302 71.2651 339.939 73.5148L338.648 81.3063C338.284 83.556 338.747 84.6809 340.038 84.6809C340.931 84.6809 341.874 84.2839 342.867 83.4898C343.859 82.6958 344.736 81.6371 345.497 80.3137Z" fill="#0C1F36"/>
<path d="M121.452 114.864L101.246 58.9462L39.8673 62.3928C32.8484 62.787 30.5592 72.0002 36.5798 75.6235L113.124 121.688C117.733 124.461 123.278 119.918 121.452 114.864Z" fill="#FF3F72"/>
<path d="M37.6877 74.1151L86.0338 105.225C88.0423 106.517 90.6442 106.426 92.5569 104.996L141.285 68.566C145.811 65.1816 143.192 57.9911 137.545 58.3006L40.4711 63.6209C34.9395 63.924 33.0312 71.1187 37.6877 74.1151Z" fill="#FF6B19"/>
<path d="M92.7749 35.378L121.588 114.967C123.439 120.078 117.762 124.633 113.16 121.731L63.6778 90.5236L81.9745 35.5192C83.684 30.3801 90.9312 30.2854 92.7749 35.378Z" fill="#FF3F72"/>
<path d="M53.583 121.055L73.2277 61.6297L137.664 58.3127C143.307 58.0223 145.906 65.2102 141.378 68.5844L62.4302 127.416C57.9519 130.754 51.8316 126.353 53.583 121.055Z" fill="#FF9B00"/>
<path fill-rule="evenodd" clip-rule="evenodd" d="M143.337 62.0748C144.123 64.256 143.64 66.893 141.378 68.5785L62.4304 127.41C57.9521 130.748 51.8318 126.347 53.5832 121.049L63.5635 90.8586L143.337 62.0748Z" fill="#FF6B19"/>
<path d="M158.878 110.078C158.218 110.078 157.645 109.934 157.158 109.648C156.672 109.354 156.298 108.934 156.038 108.388C155.778 107.834 155.648 107.181 155.648 106.428C155.648 105.681 155.778 105.034 156.038 104.488C156.298 103.941 156.672 103.524 157.158 103.238C157.645 102.944 158.218 102.798 158.878 102.798C159.372 102.798 159.822 102.878 160.228 103.038C160.642 103.191 160.998 103.421 161.298 103.728L161.038 104.218C160.698 103.911 160.358 103.691 160.018 103.558C159.678 103.418 159.298 103.348 158.878 103.348C158.058 103.348 157.422 103.618 156.968 104.158C156.515 104.691 156.288 105.448 156.288 106.428C156.288 107.414 156.512 108.178 156.958 108.718C157.412 109.258 158.052 109.528 158.878 109.528C159.298 109.528 159.678 109.461 160.018 109.328C160.358 109.188 160.698 108.964 161.038 108.658L161.298 109.148C160.998 109.454 160.642 109.688 160.228 109.848C159.822 110.001 159.372 110.078 158.878 110.078Z" fill="black"/>
<path d="M168.374 110.078C167.468 110.078 166.778 109.841 166.304 109.368C165.838 108.888 165.604 108.184 165.604 107.258V102.878H166.224V107.328C166.224 108.794 166.941 109.528 168.374 109.528C169.074 109.528 169.604 109.344 169.964 108.978C170.331 108.604 170.514 108.054 170.514 107.328V102.878H171.124V107.258C171.124 108.184 170.891 108.888 170.424 109.368C169.958 109.841 169.274 110.078 168.374 110.078Z" fill="black"/>
<path d="M175.81 102.878H176.43V109.998H175.81V102.878Z" fill="black"/>
<path d="M181.171 102.878H183.461C184.595 102.878 185.468 103.184 186.081 103.798C186.695 104.411 187.001 105.288 187.001 106.428C187.001 107.568 186.691 108.448 186.071 109.068C185.458 109.688 184.588 109.998 183.461 109.998H181.171V102.878ZM183.431 109.458C184.398 109.458 185.125 109.204 185.611 108.698C186.098 108.184 186.341 107.428 186.341 106.428C186.341 104.421 185.371 103.418 183.431 103.418H181.791V109.458H183.431Z" fill="black"/>
<path d="M195.957 108.098H192.117L191.297 109.998H190.657L193.757 102.878H194.317L197.407 109.998H196.767L195.957 108.098ZM195.717 107.558L194.037 103.628L192.347 107.558H195.717Z" fill="black"/>
<path d="M207.063 102.878V109.998H206.583L202.063 103.928V109.998H201.483V102.878H201.973L206.483 108.948V102.878H207.063Z" fill="black"/>
<path d="M211.805 102.878H214.095C215.228 102.878 216.101 103.184 216.715 103.798C217.328 104.411 217.635 105.288 217.635 106.428C217.635 107.568 217.325 108.448 216.705 109.068C216.091 109.688 215.221 109.998 214.095 109.998H211.805V102.878ZM214.065 109.458C215.031 109.458 215.758 109.204 216.245 108.698C216.731 108.184 216.975 107.428 216.975 106.428C216.975 104.421 216.005 103.418 214.065 103.418H212.425V109.458H214.065Z" fill="black"/>
<path d="M224.997 110.078C224.351 110.078 223.787 109.931 223.307 109.638C222.834 109.344 222.467 108.924 222.207 108.378C221.954 107.831 221.827 107.184 221.827 106.438C221.827 105.691 221.954 105.044 222.207 104.498C222.461 103.951 222.824 103.531 223.297 103.238C223.777 102.944 224.344 102.798 224.997 102.798C225.651 102.798 226.217 102.944 226.697 103.238C227.177 103.531 227.544 103.951 227.797 104.498C228.051 105.038 228.177 105.681 228.177 106.428C228.177 107.174 228.047 107.824 227.787 108.378C227.534 108.924 227.167 109.344 226.687 109.638C226.214 109.931 225.651 110.078 224.997 110.078ZM224.997 109.528C225.797 109.528 226.417 109.258 226.857 108.718C227.304 108.178 227.527 107.414 227.527 106.428C227.527 105.441 227.307 104.681 226.867 104.148C226.427 103.614 225.804 103.348 224.997 103.348C224.197 103.348 223.574 103.618 223.127 104.158C222.687 104.691 222.467 105.448 222.467 106.428C222.467 107.408 222.687 108.171 223.127 108.718C223.574 109.258 224.197 109.528 224.997 109.528Z" fill="black"/>
<path d="M238.093 102.878H240.383C241.516 102.878 242.389 103.184 243.003 103.798C243.616 104.411 243.923 105.288 243.923 106.428C243.923 107.568 243.613 108.448 242.993 109.068C242.379 109.688 241.509 109.998 240.383 109.998H238.093V102.878ZM240.353 109.458C241.319 109.458 242.046 109.204 242.533 108.698C243.019 108.184 243.263 107.428 243.263 106.428C243.263 104.421 242.293 103.418 240.353 103.418H238.713V109.458H240.353Z" fill="black"/>
<path d="M252.879 108.098H249.039L248.219 109.998H247.579L250.679 102.878H251.239L254.329 109.998H253.689L252.879 108.098ZM252.639 107.558L250.959 103.628L249.269 107.558H252.639Z" fill="black"/>
<path d="M266.063 110.078C265.503 110.078 265.007 110.004 264.573 109.858C264.147 109.704 263.767 109.468 263.433 109.148L263.693 108.658C264.047 108.971 264.403 109.194 264.763 109.328C265.13 109.461 265.563 109.528 266.063 109.528C266.663 109.528 267.13 109.404 267.463 109.158C267.797 108.911 267.963 108.564 267.963 108.118C267.963 107.858 267.88 107.648 267.713 107.488C267.553 107.321 267.347 107.191 267.093 107.098C266.847 107.004 266.517 106.911 266.103 106.818C265.557 106.698 265.11 106.574 264.763 106.448C264.423 106.314 264.137 106.118 263.903 105.858C263.67 105.598 263.553 105.251 263.553 104.818C263.553 104.418 263.657 104.064 263.863 103.758C264.07 103.451 264.363 103.214 264.743 103.048C265.13 102.881 265.577 102.798 266.083 102.798C266.57 102.798 267.02 102.878 267.433 103.038C267.847 103.191 268.203 103.421 268.503 103.728L268.243 104.218C267.91 103.918 267.57 103.698 267.223 103.558C266.877 103.418 266.497 103.348 266.083 103.348C265.483 103.348 265.013 103.478 264.673 103.738C264.34 103.998 264.173 104.354 264.173 104.808C264.173 105.201 264.32 105.494 264.613 105.688C264.907 105.881 265.337 106.044 265.903 106.178L266.193 106.248C266.727 106.374 267.15 106.498 267.463 106.618C267.777 106.738 268.043 106.918 268.263 107.158C268.483 107.398 268.593 107.718 268.593 108.118C268.593 108.504 268.49 108.848 268.283 109.148C268.077 109.441 267.78 109.671 267.393 109.838C267.013 109.998 266.57 110.078 266.063 110.078Z" fill="black"/>
<path d="M275.606 110.078C274.699 110.078 274.009 109.841 273.536 109.368C273.069 108.888 272.836 108.184 272.836 107.258V102.878H273.456V107.328C273.456 108.794 274.173 109.528 275.606 109.528C276.306 109.528 276.836 109.344 277.196 108.978C277.563 108.604 277.746 108.054 277.746 107.328V102.878H278.356V107.258C278.356 108.184 278.123 108.888 277.656 109.368C277.189 109.841 276.506 110.078 275.606 110.078Z" fill="black"/>
<path d="M287.633 108.098H283.793L282.973 109.998H282.333L285.433 102.878H285.993L289.083 109.998H288.443L287.633 108.098ZM287.393 107.558L285.713 103.628L284.023 107.558H287.393Z" fill="black"/>
<path d="M300.818 110.078C300.258 110.078 299.761 110.004 299.327 109.858C298.901 109.704 298.521 109.468 298.188 109.148L298.447 108.658C298.801 108.971 299.158 109.194 299.518 109.328C299.884 109.461 300.318 109.528 300.818 109.528C301.418 109.528 301.884 109.404 302.217 109.158C302.551 108.911 302.717 108.564 302.717 108.118C302.717 107.858 302.634 107.648 302.467 107.488C302.307 107.321 302.101 107.191 301.848 107.098C301.601 107.004 301.271 106.911 300.857 106.818C300.311 106.698 299.864 106.574 299.518 106.448C299.178 106.314 298.891 106.118 298.658 105.858C298.424 105.598 298.307 105.251 298.307 104.818C298.307 104.418 298.411 104.064 298.617 103.758C298.824 103.451 299.117 103.214 299.497 103.048C299.884 102.881 300.331 102.798 300.837 102.798C301.324 102.798 301.774 102.878 302.188 103.038C302.601 103.191 302.958 103.421 303.258 103.728L302.997 104.218C302.664 103.918 302.324 103.698 301.977 103.558C301.631 103.418 301.251 103.348 300.837 103.348C300.237 103.348 299.768 103.478 299.428 103.738C299.094 103.998 298.928 104.354 298.928 104.808C298.928 105.201 299.074 105.494 299.367 105.688C299.661 105.881 300.091 106.044 300.658 106.178L300.947 106.248C301.481 106.374 301.904 106.498 302.217 106.618C302.531 106.738 302.798 106.918 303.018 107.158C303.238 107.398 303.348 107.718 303.348 108.118C303.348 108.504 303.244 108.848 303.038 109.148C302.831 109.441 302.534 109.671 302.148 109.838C301.768 109.998 301.324 110.078 300.818 110.078Z" fill="black"/>
<path d="M312.271 108.098H308.431L307.611 109.998H306.971L310.071 102.878H310.631L313.721 109.998H313.081L312.271 108.098ZM312.031 107.558L310.351 103.628L308.661 107.558H312.031Z" fill="black"/>
<path d="M320.467 110.078C319.561 110.078 318.871 109.841 318.397 109.368C317.931 108.888 317.697 108.184 317.697 107.258V102.878H318.317V107.328C318.317 108.794 319.034 109.528 320.467 109.528C321.167 109.528 321.697 109.344 322.057 108.978C322.424 108.604 322.607 108.054 322.607 107.328V102.878H323.217V107.258C323.217 108.184 322.984 108.888 322.517 109.368C322.051 109.841 321.367 110.078 320.467 110.078ZM320.227 102.268L321.237 100.758H321.987L320.697 102.268H320.227Z" fill="black"/>
<path d="M327.903 102.878H330.193C331.327 102.878 332.2 103.184 332.813 103.798C333.427 104.411 333.733 105.288 333.733 106.428C333.733 107.568 333.423 108.448 332.803 109.068C332.19 109.688 331.32 109.998 330.193 109.998H327.903V102.878ZM330.163 109.458C331.13 109.458 331.857 109.204 332.343 108.698C332.83 108.184 333.073 107.428 333.073 106.428C333.073 104.421 332.103 103.418 330.163 103.418H328.523V109.458H330.163Z" fill="black"/>
<path d="M338.196 102.878H342.586V103.408H338.806V106.108H342.386V106.658H338.806V109.468H342.586V109.998H338.196V102.878Z" fill="black"/>
</svg>
