<svg width="372" height="165" viewBox="0 0 372 165" fill="none" xmlns="http://www.w3.org/2000/svg">
<g clip-path="url(#clip0_360_41080)">
<path d="M331 38.0406L41 60.4318V126.312H331V38.0406Z" fill="white"/>
<path d="M45.2812 67.9284H326.489V122.281H45.2812V67.9284Z" fill="#FDDD04"/>
<path d="M326.486 43.6722L45.2773 63.0294H326.486V43.6722ZM308.479 79.8432C303.41 79.8432 300.372 82.3512 300.372 88.2273C300.372 92.7903 302.925 94.4377 305.482 96.7172C307.997 98.7031 310.517 100.461 310.517 103.079C310.517 104.387 309.759 105.395 308.307 105.395C306.513 105.395 306.171 103.902 306.171 102.296V100.085H300.03V103.303C300.03 106.41 301.962 110.708 308.238 110.708C314.86 110.708 316.863 105.957 316.863 103.079C316.863 97.0556 313.931 95.5958 311.586 93.353C308.997 91.2571 306.309 89.1977 306.309 87.4035C306.309 86.0171 307.137 85.1567 308.479 85.1567C310.273 85.1567 310.481 86.955 310.481 88.4474V90.0582H316.414V87.3669C316.414 82.7631 314 79.8432 308.479 79.8432ZM228.626 79.8462C223.909 79.8462 220.467 82.6517 220.467 88.487V102.066C220.467 107.379 223.599 110.711 228.626 110.711C233.65 110.711 236.782 107.379 236.782 102.066V98.29H230.449V102.669C230.449 103.452 230.449 105.398 228.626 105.398C226.8 105.398 226.8 103.452 226.8 102.669V87.8876C226.8 86.8804 226.8 85.1595 228.626 85.1595C230.449 85.1595 230.449 86.8804 230.449 87.8876V91.2559H236.782V88.487C236.782 82.6517 233.34 79.8462 228.626 79.8462ZM53.6421 80.3494V110.203H59.9832V98.361H63.5675C69.2519 98.361 70.251 93.8019 70.251 89.4305C70.251 81.6175 67.3925 80.3494 60.4318 80.3494H53.6421ZM73.3795 80.3494V110.203H87.6274V104.453H79.6512V97.7982H86.3672V92.0486H79.6512V86.1072H87.3215V80.3494H73.3795ZM91.4408 80.3494V110.203H97.5861V97.313H98.7237C100.457 97.313 101.06 98.0632 101.06 99.7799V104.563C101.06 106.545 101.06 109.232 101.762 110.203H107.838C107.136 109.232 107.201 106.545 107.201 104.563V99.2947C107.201 96.7909 105.803 95.0376 103.629 94.5482V94.4748C106.904 93.3534 107.336 91.0739 107.336 87.5589C107.336 82.1803 105.032 80.3494 99.5557 80.3494H91.4408ZM111.563 80.3494V110.203H117.737V91.7468H117.807L122.973 110.203H129.91V80.3494H123.736V97.949H123.666L118.536 80.3494H111.563ZM137.649 80.3494L132.568 110.203H138.884L139.537 104.902H143.965L144.548 110.203H151.175L146.024 80.3494H137.649ZM154.023 80.3494V110.203H160.287V87.0002H160.356L163.977 110.203H168.201L171.827 87.0002H171.896V110.203H178.16V80.3494H167.953L166.126 95.1435H166.057L164.226 80.3494H154.023ZM181.378 80.3494V110.203H190.361C196.005 110.203 197.693 106.353 197.693 101.35C197.693 97.574 196.624 95.0742 193.525 94.4748V94.3973C196.592 93.28 197.004 90.5112 197.004 87.3754C197.004 82.2578 194.769 80.3494 190.153 80.3494L181.378 80.3494ZM201.115 80.3494V102.072C201.115 107.381 204.247 110.708 209.275 110.708C214.299 110.708 217.431 107.381 217.431 102.072V80.3494H211.098V102.149C211.098 103.756 211.098 105.175 209.275 105.175C207.448 105.175 207.448 103.756 207.448 102.149V80.3494H201.115ZM243.367 80.3494L238.286 110.203H244.603L245.255 104.902H249.684L250.271 110.203H256.897L251.747 80.3494H243.367ZM259.558 80.3494V110.203H265.732V91.7468H265.801L270.968 110.203H277.9V80.3494H271.726V97.949H271.661L266.527 80.3494H259.558ZM284.869 80.3494L279.788 110.203H286.105L286.757 104.902H291.186L291.773 110.203H298.399L293.249 80.3494H284.869ZM141.804 84.9817H141.869L143.345 99.5925H140.189L141.804 84.9817ZM247.523 84.9817H247.592L249.064 99.5925H245.908L247.523 84.9817ZM289.024 84.9817H289.094L290.57 99.5925H287.41L289.024 84.9817ZM97.5861 85.4303H98.789C101.195 85.4303 101.195 86.6251 101.195 88.7211C101.195 90.6621 101.195 92.2321 99.0866 92.2321H97.5861V85.4303ZM187.71 85.4303H189.121C190.671 85.4303 191.083 86.5884 191.083 88.6803C191.083 90.548 190.875 92.1546 188.881 92.1546H187.71V85.4303ZM59.9832 85.6545H60.7049C62.8417 85.6545 63.9101 85.6546 63.9101 89.2797C63.9101 91.9711 63.6001 93.0516 61.5694 93.0516H59.9832V85.6545ZM187.71 97.0153H189.158C191.119 97.0153 191.36 98.9931 191.36 101.052C191.36 104.005 191.12 105.122 189.019 105.122H187.71V97.0153Z" fill="#1D3C85"/>
</g>
<defs>
<clipPath id="clip0_360_41080">
<rect width="290" height="88.2718" fill="white" transform="translate(41 38.0469)"/>
</clipPath>
</defs>
</svg>
