<svg width="372" height="165" viewBox="0 0 372 165" fill="none" xmlns="http://www.w3.org/2000/svg">
<path fill-rule="evenodd" clip-rule="evenodd" d="M160.472 68.2913V93.2676C160.472 95.8913 162.787 97.2032 167.418 97.2032C169.017 97.2504 170.603 96.9265 172.041 96.2592C173.479 95.5919 174.727 94.6011 175.676 93.372C177.874 90.3682 178.961 86.7496 178.763 83.0894C178.909 79.2756 177.589 75.5426 175.051 72.5948C173.768 71.0868 172.092 69.9278 170.192 69.2344C167.763 68.5191 165.224 68.2023 162.684 68.2974L160.472 68.2913ZM156.29 98.6276L156.264 72.4283C156.398 71.2745 156.164 70.109 155.592 69.0845C155.213 68.7694 154.767 68.5355 154.285 68.3987C153.803 68.2619 153.296 68.2253 152.798 68.2913H152.383V67.0122H164.417C167.343 66.9702 170.265 67.228 173.133 67.7812C175.098 68.3307 176.943 69.2148 178.579 70.3908C181.82 72.834 183.439 76.5628 183.438 81.5772C183.555 86.0549 181.994 90.4253 179.037 93.9018C177.612 95.6042 175.713 96.8885 173.558 97.6074C170.585 98.3959 167.502 98.7406 164.418 98.6291L156.29 98.6276Z" fill="#F2F5F8"/>
<path fill-rule="evenodd" clip-rule="evenodd" d="M201.392 94.6129C200.343 96.0054 199.018 97.1881 197.492 98.0945C196.185 98.8532 194.684 99.2543 193.154 99.254C192.443 99.2714 191.735 99.1457 191.078 98.8849C190.421 98.6241 189.829 98.2341 189.339 97.7403C188.787 97.1713 188.369 96.4962 188.112 95.7601C187.855 95.024 187.767 94.2439 187.852 93.4724C187.937 92.7008 188.193 91.9555 188.605 91.2865C189.016 90.6174 189.572 90.0402 190.237 89.5935C192.674 88.0407 195.377 86.9084 198.224 86.2482L201.077 85.4368V82.2459C201.119 81.2683 201.034 80.2895 200.823 79.332C200.646 78.7569 200.261 78.26 199.738 77.9288C198.832 77.2981 197.732 76.9747 196.612 77.01C195.584 76.9376 194.563 77.2207 193.736 77.8077C193.401 78.1167 193.143 78.4926 192.978 78.9085C192.814 79.3244 192.748 79.7699 192.785 80.213V81.2272L188.295 82.6349V82.0294C188.371 81.0943 188.673 80.1886 189.176 79.3831C189.679 78.5775 190.37 77.8938 191.195 77.3854C193.24 75.9161 195.75 75.1601 198.307 75.2435C200.128 75.0851 201.946 75.5877 203.397 76.6512C203.971 77.2759 204.407 78.0056 204.677 78.7958C204.947 79.5861 205.046 80.4204 204.968 81.2484V90.9043C204.839 92.567 205.066 94.2373 205.635 95.8133C205.904 96.2412 206.298 96.5851 206.768 96.8031C207.238 97.0211 207.765 97.1037 208.283 97.0409C208.743 97.035 209.201 96.9996 209.656 96.935V98.1459C208.429 98.856 207.027 99.242 205.592 99.2646C205.062 99.2848 204.534 99.1911 204.046 98.9904C203.559 98.7897 203.125 98.4872 202.776 98.1051C201.98 97.0928 201.502 95.8854 201.397 94.6235M201.08 86.8022L199.892 87.17C197.632 87.7293 195.483 88.6369 193.53 89.8569C193.02 90.2775 192.618 90.8052 192.357 91.3987C192.096 91.9921 191.982 92.6353 192.024 93.2778C192.01 94.221 192.377 95.1331 193.05 95.8239C193.35 96.1614 193.723 96.4327 194.144 96.619C194.564 96.8053 195.022 96.9023 195.486 96.9032C196.325 96.8714 197.148 96.6636 197.894 96.2945C198.64 95.9254 199.293 95.404 199.804 94.7673C200.709 93.6626 201.16 92.2802 201.072 90.8801L201.08 86.8022Z" fill="#F2F5F8"/>
<path fill-rule="evenodd" clip-rule="evenodd" d="M259.146 95.7741V97.7419C256.643 98.7163 253.969 99.2299 251.266 99.2556C249.675 99.3354 248.084 99.0938 246.597 98.5467C245.11 97.9996 243.761 97.1592 242.637 96.0804C241.513 95.0015 240.639 93.7085 240.074 92.2857C239.508 90.8628 239.263 89.342 239.355 87.8226C239.293 86.1614 239.581 84.5053 240.201 82.9523C240.822 81.3993 241.762 79.9809 242.966 78.7812C244.159 77.6094 245.594 76.6884 247.181 76.0774C248.768 75.4664 250.471 75.1788 252.181 75.233C255.018 75.1986 257.777 76.115 259.98 77.823L257.04 80.92C255.207 78.0813 253.031 76.662 250.514 76.662C249.531 76.654 248.564 76.8973 247.714 77.3665C246.863 77.8358 246.159 78.5139 245.675 79.3306C244.374 81.5079 243.752 83.9944 243.879 86.4981C243.707 89.2724 244.532 92.0196 246.219 94.2846C247.002 95.206 248.001 95.9386 249.135 96.4232C250.269 96.9078 251.507 97.1309 252.748 97.0744C254.956 97.095 257.142 96.6506 259.15 95.7726" fill="#F2F5F8"/>
<path fill-rule="evenodd" clip-rule="evenodd" d="M274.352 99.2578C272.767 99.3029 271.19 99.0245 269.727 98.4411C268.263 97.8577 266.947 96.9827 265.866 95.8747C263.723 93.4655 262.547 90.4074 262.547 87.2465C262.547 84.0856 263.723 81.0276 265.866 78.6184C266.976 77.5463 268.298 76.6952 269.755 76.1143C271.213 75.5334 272.776 75.2344 274.355 75.2344C275.934 75.2344 277.497 75.5334 278.954 76.1143C280.412 76.6952 281.734 77.5463 282.844 78.6184C284.998 81.0224 286.182 84.0824 286.182 87.2465C286.182 90.4106 284.998 93.4706 282.844 95.8747C281.764 96.9847 280.447 97.8609 278.982 98.4445C277.517 99.028 275.939 99.3054 274.352 99.2578ZM274.352 97.8259C275.408 97.8255 276.444 97.5555 277.354 97.044C278.263 96.5324 279.013 95.7979 279.526 94.9165C280.813 92.5469 281.485 89.9163 281.485 87.2465C281.485 84.5768 280.813 81.9462 279.526 79.5765C279.017 78.6941 278.27 77.9582 277.362 77.4456C276.454 76.9331 275.419 76.6627 274.364 76.6627C273.31 76.6627 272.275 76.9331 271.367 77.4456C270.459 77.9582 269.712 78.6941 269.203 79.5765C267.916 81.9462 267.244 84.5768 267.244 87.2465C267.244 89.9163 267.916 92.5469 269.203 94.9165C269.712 95.7962 270.457 96.53 271.363 97.0416C272.268 97.5532 273.3 97.824 274.352 97.8259Z" fill="#F2F5F8"/>
<path fill-rule="evenodd" clip-rule="evenodd" d="M300.9 99.2601L292.015 81.2121C291.471 80.0376 290.792 78.9239 289.993 77.891C289.782 77.6492 289.517 77.4557 289.218 77.3247C288.918 77.1937 288.592 77.1286 288.262 77.1342H287.945V75.8702H297.645V77.1342H297.269C295.908 77.1342 295.229 77.4657 295.229 78.1347C295.444 79.1944 295.83 80.2157 296.374 81.1621L302.629 94.0287L308.092 81.1879C308.549 80.3095 308.855 79.3664 308.997 78.3951C308.997 77.5519 308.241 77.1311 306.743 77.1311H306.387V75.8672H314.167V77.1311H313.85C313.512 77.138 313.181 77.2188 312.881 77.3674C312.581 77.5159 312.321 77.7282 312.121 77.9879C311.392 78.9781 310.795 80.0516 310.344 81.1833L302.293 99.2586L300.9 99.2601Z" fill="#F2F5F8"/>
<path fill-rule="evenodd" clip-rule="evenodd" d="M330.327 94.6128C329.275 96.0041 327.949 97.1865 326.424 98.0943C325.115 98.853 323.613 99.2541 322.083 99.2539C321.371 99.2711 320.664 99.1452 320.007 98.8845C319.351 98.6237 318.758 98.2338 318.27 97.7401C317.715 97.1723 317.294 96.4974 317.036 95.761C316.778 95.0245 316.688 94.2437 316.773 93.4714C316.858 92.6991 317.116 91.9532 317.529 91.2841C317.942 90.6151 318.5 90.0385 319.167 89.5933C321.604 88.0399 324.308 86.9076 327.156 86.248L330.009 85.4367V82.2458C330.051 81.2684 329.967 80.2898 329.76 79.3319C329.581 78.7581 329.198 78.2619 328.677 77.9287C327.768 77.299 326.666 76.9758 325.544 77.0098C324.517 76.9368 323.497 77.2201 322.671 77.8076C322.334 78.1152 322.072 78.4907 321.906 78.9067C321.74 79.3227 321.672 79.7689 321.709 80.2129V81.227L317.23 82.6348V82.0293C317.305 81.0946 317.605 80.189 318.107 79.3834C318.609 78.5778 319.299 77.894 320.124 77.3853C322.168 75.9147 324.678 75.1586 327.235 75.2433C329.056 75.0854 330.873 75.588 332.324 76.6511C332.898 77.2772 333.333 78.0083 333.602 78.7999C333.871 79.5915 333.968 80.4271 333.888 81.2558V90.9118C333.76 92.5743 333.986 94.2444 334.554 95.8207C334.825 96.2472 335.219 96.5898 335.69 96.8076C336.16 97.0253 336.685 97.1089 337.204 97.0484C337.665 97.0424 338.126 97.007 338.583 96.9424V98.1534C337.355 98.8625 335.953 99.2485 334.519 99.272C333.988 99.2919 333.46 99.1981 332.972 98.9975C332.484 98.7968 332.049 98.4944 331.7 98.1125C330.908 97.0986 330.432 95.8918 330.327 94.631M330.01 86.8096L328.822 87.1774C326.562 87.7358 324.414 88.6434 322.461 89.8643C321.952 90.2854 321.551 90.8132 321.29 91.4066C321.028 91.9999 320.914 92.6429 320.956 93.2853C320.941 94.2285 321.309 95.1406 321.981 95.8313C322.282 96.1689 322.655 96.4401 323.076 96.6265C323.497 96.8128 323.955 96.9097 324.419 96.9106C325.258 96.878 326.08 96.6698 326.826 96.3008C327.572 95.9318 328.224 95.4108 328.736 94.7748C329.64 93.6697 330.091 92.2875 330.004 90.8876L330.01 86.8096Z" fill="#F2F5F8"/>
<path fill-rule="evenodd" clip-rule="evenodd" d="M348.453 67.0117V93.2519C348.326 94.4026 348.565 95.5632 349.139 96.5821C349.551 96.8929 350.023 97.1217 350.529 97.2548C351.034 97.3879 351.563 97.4227 352.083 97.3571H352.355V98.6271H340.695V97.3617H341.068C341.571 97.428 342.083 97.3933 342.572 97.2599C343.06 97.1264 343.514 96.8971 343.905 96.5866C344.467 95.564 344.7 94.4054 344.575 93.2565V76.0001C344.672 74.7439 344.529 73.4813 344.155 72.2734C343.599 71.5233 342.803 70.9668 341.886 70.6885L340.695 70.1966V69.8666L348.453 67.0117Z" fill="#F2F5F8"/>
<path fill-rule="evenodd" clip-rule="evenodd" d="M223.685 97.9129L215.51 81.2484C214.956 80.069 214.271 78.9491 213.469 77.9077C213.263 77.6643 213.002 77.4681 212.706 77.3338C212.409 77.1994 212.085 77.1301 211.757 77.1311H211.44V75.8672H221.138V77.1311H220.763C219.401 77.1311 218.719 77.4727 218.718 78.1559C218.948 79.2358 219.342 80.2777 219.888 81.2484L225.809 93.5549L231.776 81.2484C232.28 80.3859 232.632 79.45 232.817 78.4783C232.817 77.5807 232.12 77.1311 230.735 77.1311H230.524V75.8672H237.656V77.1311H237.361C237.024 77.1271 236.691 77.197 236.387 77.3353C236.084 77.4736 235.817 77.6767 235.608 77.9289C234.828 78.9771 234.17 80.104 233.648 81.2893L224.159 100.483C223.528 101.866 222.773 103.194 221.902 104.452C221.184 105.324 220.333 106.089 219.379 106.723C217.82 107.639 216.022 108.119 214.192 108.108C213.041 108.094 211.897 107.937 210.789 107.642L212.829 104.116C213.736 104.343 214.668 104.466 215.605 104.484C217.142 104.512 218.648 104.069 219.9 103.218C221.243 102.232 222.293 100.927 222.945 99.4342L223.685 97.9129Z" fill="#F2F5F8"/>
<path d="M177.3 105.633H166.781V115.905H177.3V105.633Z" fill="#F2F5F8"/>
<path fill-rule="evenodd" clip-rule="evenodd" d="M34.8783 81.2272C37.2168 81.7361 39.3433 82.8992 40.9864 84.568C42.4447 86.0729 43.2434 88.0547 43.2179 90.1051C43.2711 91.2886 43.037 92.4677 42.5338 93.5504C42.0307 94.6331 41.2722 95.5899 40.3176 96.3462C38.0592 97.966 35.2752 98.7737 32.4551 98.6273L23.4403 98.5834L23.4673 72.4265C23.5969 71.2734 23.3646 70.1095 22.8 69.0827C22.4198 68.7684 21.9738 68.5352 21.4917 68.3986C21.0096 68.2621 20.5025 68.2254 20.0043 68.291H19.5859V67.0119H31.0762C33.0001 66.9673 34.9248 67.0477 36.8372 67.2526C37.8533 67.3991 38.8222 67.7612 39.6726 68.3122C40.4446 68.8071 41.0708 69.483 41.4909 70.2752C41.9111 71.0674 42.1112 71.9494 42.072 72.8367C42.0943 74.5985 41.4569 76.3098 40.2748 77.6624C38.8037 79.2494 36.9521 80.4725 34.8783 81.2272ZM27.6814 68.291V80.9169H31.6832C32.5463 80.8334 33.3828 80.5843 34.1427 80.1845C34.9025 79.7847 35.5699 79.2425 36.105 78.5903C36.7432 77.9596 37.2436 77.2138 37.5769 76.3964C37.9102 75.5791 38.0698 74.7066 38.0465 73.8297C38.1009 73.0324 37.9462 72.2347 37.5964 71.5089C37.2466 70.7831 36.7128 70.1521 36.0432 69.6731C34.2477 68.6281 32.156 68.1435 30.0587 68.2865L27.6814 68.291ZM27.6814 82.1839V93.2521C27.6814 95.992 29.5579 97.3629 33.3109 97.3649C34.1171 97.3834 34.9181 97.2368 35.66 96.935C36.4019 96.6331 37.0676 96.1831 37.6122 95.6151C38.7611 94.3994 39.3723 92.806 39.3175 91.1693C39.332 89.9453 39.0564 88.7341 38.5113 87.6263C37.9662 86.5185 37.1658 85.5428 36.17 84.7723C34.0161 83.0242 31.2595 82.1019 28.4343 82.1839H27.6814Z" fill="#F2F5F8"/>
<path fill-rule="evenodd" clip-rule="evenodd" d="M61.4693 94.6125C60.4202 96.0045 59.0963 97.1872 57.5721 98.094C56.2639 98.8523 54.763 99.2534 53.2327 99.2535C52.5207 99.2714 51.8128 99.1459 51.155 98.8851C50.4971 98.6243 49.9042 98.234 49.4148 97.7398C48.9097 97.2292 48.5153 96.6282 48.2542 95.9715C47.9931 95.3148 47.8705 94.6153 47.8933 93.9131C47.9024 93.0614 48.1273 92.2243 48.5488 91.4736C48.9702 90.7229 49.5757 90.0807 50.3134 89.6021C52.7508 88.0487 55.455 86.9163 58.3027 86.2568L61.1555 85.4454V82.2455C61.1977 81.2679 61.1125 80.2891 60.9019 79.3315C60.7234 78.758 60.3412 78.2618 59.821 77.9283C58.9133 77.2989 57.8121 76.9756 56.6909 77.0095C55.6625 76.9378 54.6413 77.2209 53.8128 77.8072C53.4757 78.1148 53.2146 78.4903 53.0484 78.9064C52.8823 79.3224 52.8153 79.7686 52.8524 80.2125V81.2267L48.3688 82.6345V82.029C48.4451 81.0938 48.7465 80.1882 49.2496 79.3826C49.7527 78.5771 50.4438 77.8934 51.2691 77.3849C53.3135 75.9134 55.8252 75.1572 58.3836 75.243C60.2047 75.0861 62.0211 75.5886 63.4726 76.6508C64.0455 77.2775 64.4794 78.0087 64.748 78.8002C65.0166 79.5916 65.1143 80.4269 65.0353 81.2555V90.9115C64.9062 92.574 65.1327 94.2442 65.7009 95.8204C65.97 96.2481 66.3634 96.5918 66.8333 96.8098C67.3032 97.0277 67.8293 97.1105 68.3476 97.048C68.8087 97.0422 69.2688 97.0068 69.7249 96.9421V98.153C68.497 98.8623 67.0944 99.2482 65.6597 99.2717C65.129 99.2907 64.6006 99.1965 64.1129 98.9959C63.6252 98.7954 63.1904 98.4934 62.8402 98.1122C62.0482 97.0982 61.5714 95.8916 61.4645 94.6306M61.1476 86.8093L59.9573 87.1771C57.6985 87.7366 55.5503 88.6441 53.5973 89.864C53.0872 90.2848 52.6859 90.8125 52.4248 91.406C52.1636 91.9994 52.0496 92.6425 52.0916 93.285C52.0775 94.2281 52.4448 95.1401 53.117 95.831C53.4178 96.1689 53.7918 96.4404 54.2132 96.6268C54.6346 96.8131 55.0934 96.9098 55.5577 96.9103C56.3969 96.8777 57.2184 96.6695 57.9641 96.3004C58.7098 95.9314 59.3615 95.4105 59.8733 94.7744C60.777 93.6692 61.2277 92.2871 61.1412 90.8872L61.1476 86.8093Z" fill="#F2F5F8"/>
<path fill-rule="evenodd" clip-rule="evenodd" d="M79.9219 81.2288V93.2537C79.7923 94.4051 80.0333 95.5668 80.6129 96.5839C81.0233 96.8951 81.4951 97.1241 82.0003 97.2573C82.5054 97.3904 83.0334 97.425 83.5528 97.3589H83.8238V98.6244H72.1719V97.3589H72.5412C73.0417 97.4249 73.5512 97.39 74.0368 97.2565C74.5224 97.123 74.9733 96.8939 75.3606 96.5839C75.9364 95.5656 76.1751 94.4044 76.0453 93.2537V84.0791C76.138 82.8643 75.9983 81.6436 75.6332 80.4765C75.0687 79.7367 74.2721 79.1879 73.3589 78.9098L72.1719 78.4012V78.0985L79.9219 75.2618V79.9694C81.3263 78.5891 82.9198 77.3966 84.659 76.4243C85.9368 75.6967 87.3865 75.2894 88.8732 75.2406C89.7517 75.2171 90.6251 75.3742 91.4345 75.7012C92.2438 76.0282 92.9702 76.5174 93.5644 77.1357C94.8323 78.4295 95.4663 80.7803 95.4663 84.1881V93.2568C95.336 94.4078 95.5759 95.5694 96.1541 96.5869C96.5568 96.8979 97.0218 97.127 97.5205 97.2603C98.0192 97.3936 98.5412 97.4282 99.0544 97.362H99.3476V98.6274H87.7068V97.362H88.0412C88.5488 97.4301 89.0659 97.3941 89.5578 97.2562C90.0497 97.1184 90.5052 96.882 90.8939 96.5627C91.4714 95.5516 91.7109 94.3957 91.5802 93.2507V84.1079C91.7061 82.5879 91.3505 81.0668 90.5595 79.7424C90.1698 79.2744 89.6643 78.9065 89.0885 78.6718C88.5127 78.4371 87.8848 78.3431 87.2614 78.3982C86.0571 78.4152 84.868 78.6585 83.762 79.1142C82.3894 79.6551 81.0981 80.3677 79.9219 81.2334" fill="#F2F5F8"/>
<path fill-rule="evenodd" clip-rule="evenodd" d="M121.803 95.7739V97.7417C119.297 98.7164 116.622 99.23 113.917 99.2554C112.326 99.3347 110.735 99.0928 109.249 98.5455C107.762 97.9982 106.413 97.1577 105.29 96.0788C104.166 95 103.294 93.7071 102.729 92.2845C102.164 90.8618 101.919 89.3414 102.011 87.8223C101.95 86.162 102.237 84.5068 102.856 82.954C103.474 81.4013 104.412 79.9824 105.613 78.7809C106.808 77.6099 108.245 76.6895 109.832 76.0786C111.42 75.4676 113.123 75.1796 114.834 75.2328C117.673 75.1986 120.435 76.1149 122.64 77.8228L119.697 80.9198C117.861 78.0811 115.685 76.6617 113.168 76.6617C112.186 76.653 111.218 76.896 110.367 77.3653C109.516 77.8346 108.812 78.5132 108.328 79.3304C107.029 81.508 106.406 83.9944 106.534 86.4978C106.361 89.272 107.186 92.0192 108.872 94.2844C109.655 95.2058 110.654 95.9382 111.788 96.4223C112.923 96.9065 114.161 97.1287 115.402 97.0711C117.609 97.0912 119.795 96.6468 121.803 95.7693" fill="#F2F5F8"/>
<path fill-rule="evenodd" clip-rule="evenodd" d="M137.009 99.2577C135.424 99.3033 133.846 99.0251 132.383 98.4417C130.919 97.8582 129.602 96.983 128.521 95.8746C126.379 93.4651 125.203 90.4071 125.203 87.2464C125.203 84.0856 126.379 81.0277 128.521 78.6182C129.631 77.5462 130.953 76.6951 132.41 76.1143C133.867 75.5334 135.43 75.2344 137.009 75.2344C138.588 75.2344 140.151 75.5334 141.608 76.1143C143.066 76.6951 144.387 77.5462 145.498 78.6182C147.652 81.022 148.836 84.0821 148.836 87.2464C148.836 90.4107 147.652 93.4708 145.498 95.8746C144.418 96.9847 143.102 97.861 141.637 98.4445C140.173 99.0281 138.595 99.3054 137.009 99.2577ZM137.009 97.8257C138.065 97.8257 139.101 97.5558 140.011 97.0443C140.921 96.5327 141.67 95.798 142.182 94.9164C143.471 92.5471 144.144 89.9164 144.144 87.2464C144.144 84.5764 143.471 81.9457 142.182 79.5764C141.674 78.6936 140.927 77.9573 140.019 77.4445C139.111 76.9317 138.075 76.6611 137.02 76.6611C135.966 76.6611 134.93 76.9317 134.022 77.4445C133.114 77.9573 132.367 78.6936 131.859 79.5764C130.572 81.9462 129.9 84.5768 129.9 87.2464C129.9 89.916 130.572 92.5465 131.859 94.9164C132.367 95.796 133.113 96.5296 134.019 97.0412C134.925 97.5527 135.957 97.8236 137.009 97.8257Z" fill="#F2F5F8"/>
<path d="M166.781 105.633H156.266V115.905H166.781V105.633Z" fill="#F2F5F8"/>
</svg>
