<svg width="372" height="165" viewBox="0 0 372 165" fill="none" xmlns="http://www.w3.org/2000/svg">
<g clip-path="url(#clip0_353_27195)">
<path d="M123.896 98.8986H146.655V91.5849H132.557V85.4501H145.043V78.6417H132.557V72.507H146.655V65.2174H123.896V98.8986ZM174.899 84.3916C171.603 89.6362 168.403 91.8255 164.289 91.8255C158.948 91.8255 155.845 88.0725 155.845 81.5527C155.845 75.3699 158.708 72.2904 163.11 72.2904C166.021 72.2904 168.427 73.5896 169.173 77.92H177.834C176.895 69.6681 171.627 64.5438 163.206 64.5438C153.439 64.5438 147.015 71.4484 147.015 82.0339C147.015 92.6916 153.439 99.5722 164 99.5722C170.905 99.5722 175.596 96.6852 178.7 92.7878H190.512V98.8986H199.125V65.2174H186.904L174.899 84.3916ZM190.512 86.0275H182.886L190.512 73.6377V86.0275ZM105.419 65.2174H92.7647V98.8986H105.419C115.451 98.8986 121.923 92.2826 121.923 82.058C121.923 71.8333 115.451 65.2174 105.419 65.2174ZM105.299 91.5849H101.426V72.507H105.299C110.303 72.507 113.118 76.0435 113.118 82.058C113.118 88.0484 110.303 91.5849 105.299 91.5849ZM298.533 64.5438C288.356 64.5438 281.524 71.4484 281.524 82.058C281.524 92.6675 288.356 99.5722 298.533 99.5722C308.733 99.5722 315.542 92.6675 315.542 82.058C315.542 71.4484 308.733 64.5438 298.533 64.5438ZM298.533 91.8255C293.528 91.8255 290.377 88.4815 290.377 82.058C290.377 75.6345 293.528 72.2904 298.533 72.2904C303.561 72.2904 306.688 75.6345 306.688 82.058C306.688 88.4815 303.561 91.8255 298.533 91.8255ZM201.29 72.507H209.783V98.8986H218.444V72.507H226.936V65.2174H201.29L201.29 72.507ZM337.651 65.2174V83.7661L326.488 65.2174H317.514V98.8986H325.886V79.58L337.506 98.8986H346.023V65.2174L337.651 65.2174ZM269.254 65.2174H260.593V98.8986H282.317V91.609H269.254V65.2174ZM249.43 78.0643H237.762V65.2174H229.101V98.8986H237.762V85.3299H249.43V98.8986H258.091V65.2174H249.43V78.0643Z" fill="white"/>
<path d="M68.3222 58C49.5152 58 26.1211 77.4588 26.1211 93.586C26.1211 101.915 32.5189 106.116 40.9687 106.116C47.1733 106.116 54.6816 103.847 61.9244 99.4768V67.2948C59.993 70.6024 50.9154 83.929 43.6244 91.0269C39.9065 94.6483 36.9611 96.2175 34.4261 96.2175C31.5773 96.2175 30.2253 94.2861 30.2253 91.4132C30.2253 78.3762 52.1708 61.4282 66.7046 61.4282C72.6919 61.4282 76.5547 64.0839 76.5547 69.2504C76.5547 73.9823 73.3438 79.9214 67.8635 85.4017V95.3725C77.4239 87.816 83.1456 78.1831 83.1456 70.4092C83.1456 62.2249 76.772 58 68.3222 58Z" fill="white"/>
</g>
<defs>
<clipPath id="clip0_353_27195">
<rect width="322.377" height="48.1159" fill="white" transform="translate(25 58)"/>
</clipPath>
</defs>
</svg>
