<svg width="881" height="237" viewBox="0 0 881 237" fill="none" xmlns="http://www.w3.org/2000/svg">
<g clip-path="url(#clip0_332_34335)">
<path d="M245.405 141.125H234.707V89.745L269.051 120.137V91.3804H279.818V142.692L245.405 112.777V141.125ZM315.397 142.079C310.536 142.079 306.061 140.921 301.973 138.604C297.884 136.287 294.636 133.152 292.228 129.2C289.821 125.202 288.617 120.864 288.617 116.185C288.617 111.551 289.821 107.258 292.228 103.306C294.636 99.3078 297.884 96.1505 301.973 93.8336C306.061 91.5167 310.536 90.3583 315.397 90.3583C320.258 90.3583 324.755 91.5167 328.889 93.8336C333.023 96.1505 336.294 99.3078 338.702 103.306C341.11 107.258 342.314 111.551 342.314 116.185C342.314 120.864 341.11 125.202 338.702 129.2C336.294 133.152 333.023 136.287 328.889 138.604C324.755 140.921 320.258 142.079 315.397 142.079ZM315.397 100.171C312.49 100.171 309.809 100.92 307.356 102.42C304.903 103.873 302.95 105.827 301.496 108.28C300.042 110.733 299.315 113.368 299.315 116.185C299.315 119.001 300.042 121.659 301.496 124.157C302.95 126.61 304.903 128.587 307.356 130.086C309.809 131.585 312.49 132.335 315.397 132.335C318.304 132.335 320.985 131.585 323.438 130.086C325.936 128.587 327.89 126.61 329.298 124.157C330.752 121.659 331.479 119.001 331.479 116.185C331.479 113.368 330.752 110.733 329.298 108.28C327.89 105.827 325.936 103.873 323.438 102.42C320.985 100.92 318.304 100.171 315.397 100.171ZM382.292 111.619H406.074V120.955H382.292V141.125H371.458V91.3123H409.209V100.648H382.292V111.619ZM417.043 141.125V91.3123H439.19C442.733 91.3123 445.868 92.0392 448.594 93.4929C451.319 94.9466 453.432 96.9909 454.931 99.6258C456.43 102.261 457.18 105.259 457.18 108.621C457.18 112.21 456.271 115.412 454.454 118.229C452.637 121.045 450.161 123.112 447.026 124.43C450.252 128.519 454.545 134.084 459.905 141.125H447.026C444.119 137.491 440.144 132.312 435.101 125.588H427.742V141.125H417.043ZM439.19 116.253C441.052 116.253 442.733 115.594 444.232 114.277C445.732 112.914 446.481 111.028 446.481 108.621C446.481 106.667 445.959 104.85 444.914 103.169C443.869 101.488 441.961 100.648 439.19 100.648H427.742V116.253H439.19ZM467.913 141.125V91.3123H478.68V141.125H467.913ZM538.477 128.314C536.069 132.494 532.753 135.833 528.528 138.331C524.348 140.83 519.783 142.079 514.831 142.079C509.97 142.079 505.473 140.921 501.339 138.604C497.25 136.287 494.002 133.152 491.594 129.2C489.186 125.248 487.983 120.932 487.983 116.253C487.983 111.619 489.186 107.326 491.594 103.374C494.002 99.4213 497.25 96.2867 501.339 93.9699C505.473 91.653 509.97 90.4946 514.831 90.4946C519.737 90.4946 524.303 91.7439 528.528 94.2425C532.753 96.6956 536.069 99.9892 538.477 104.123L528.46 108.007C526.87 105.736 524.848 103.873 522.395 102.42C519.987 100.966 517.466 100.239 514.831 100.239C511.924 100.239 509.243 100.989 506.79 102.488C504.337 103.942 502.383 105.895 500.93 108.348C499.521 110.801 498.817 113.436 498.817 116.253C498.817 119.069 499.521 121.727 500.93 124.225C502.383 126.679 504.337 128.655 506.79 130.154C509.243 131.608 511.924 132.335 514.831 132.335C517.466 132.335 519.987 131.608 522.395 130.154C524.848 128.655 526.87 126.747 528.46 124.43L538.477 128.314ZM565.582 100.648V141.125H554.747V100.648H540.232V91.3123H580.028V100.648H565.582ZM587.896 141.125V91.3123H598.663V141.125H587.896ZM635.018 142.079C630.157 142.079 625.682 140.921 621.594 138.604C617.505 136.287 614.257 133.152 611.849 129.2C609.442 125.202 608.238 120.864 608.238 116.185C608.238 111.551 609.442 107.258 611.849 103.306C614.257 99.3078 617.505 96.1505 621.594 93.8336C625.682 91.5167 630.157 90.3583 635.018 90.3583C639.879 90.3583 644.376 91.5167 648.51 93.8336C652.644 96.1505 655.915 99.3078 658.323 103.306C660.731 107.258 661.935 111.551 661.935 116.185C661.935 120.864 660.731 125.202 658.323 129.2C655.915 133.152 652.644 136.287 648.51 138.604C644.376 140.921 639.879 142.079 635.018 142.079ZM635.018 100.171C632.111 100.171 629.43 100.92 626.977 102.42C624.524 103.873 622.571 105.827 621.117 108.28C619.663 110.733 618.936 113.368 618.936 116.185C618.936 119.001 619.663 121.659 621.117 124.157C622.571 126.61 624.524 128.587 626.977 130.086C629.43 131.585 632.111 132.335 635.018 132.335C637.925 132.335 640.606 131.585 643.059 130.086C645.558 128.587 647.511 126.61 648.919 124.157C650.373 121.659 651.1 119.001 651.1 116.185C651.1 113.368 650.373 110.733 648.919 108.28C647.511 105.827 645.558 103.873 643.059 102.42C640.606 100.92 637.925 100.171 635.018 100.171ZM681.416 141.125H670.717V89.745L705.061 120.137V91.3804H715.828V142.692L681.416 112.777V141.125ZM789.813 89.745L817.139 141.125H805.35L801.398 133.493H778.161L774.345 141.125H762.488L789.813 89.745ZM796.219 124.294L789.813 111.278L783.476 124.294H796.219ZM824.068 141.125V91.3123H834.835V141.125H824.068Z" fill="white"/>
<path d="M66.3486 49.4688C77.7854 49.4688 85.9544 56.4129 88.6094 59.8848C99.0929 70.3683 120.999 92.1924 124.758 95.624C128.516 99.055 131.633 103.862 132.723 105.836C135.99 111.759 139.544 126.544 127.617 138.308C115.691 150.071 101.136 146.75 95.3496 143.618V193.857C95.4858 195.9 94.8591 200.516 91.2646 202.64C87.6703 204.764 83.912 202.707 82.4824 201.414C69.0714 188.003 41.9233 160.813 40.6162 159.343C39.3095 157.873 38.9825 155.872 38.9824 155.055V75.8145C38.9824 69.1158 42.9311 62.8117 44.9053 60.4971C47.288 56.821 54.9121 49.4689 66.3486 49.4688ZM76.9688 70.0957C75.0626 67.5769 69.4533 63.2335 62.2646 66.0107C55.0759 68.7882 54.0955 76.2905 54.5039 79.6943V151.787L79.4189 176.09V118.702C79.487 111.895 83.5041 97.0131 99.0254 91.9482L76.9688 70.0957ZM107.808 106.244C101.04 106.244 95.5537 111.731 95.5537 118.498C95.5538 125.265 101.04 130.752 107.808 130.752C114.575 130.752 120.06 125.265 120.061 118.498C120.061 111.731 114.575 106.244 107.808 106.244Z" fill="#F9F9F9"/>
<path d="M124.241 34.4564C127.835 32.3326 131.594 34.3886 133.023 35.682C146.434 49.0926 173.581 76.2813 174.89 77.7533C176.196 79.2235 176.523 81.2243 176.523 82.0414V161.282C176.523 167.98 172.575 174.284 170.601 176.599C168.218 180.275 160.594 187.627 149.157 187.627C137.721 187.627 129.551 180.683 126.897 177.211C116.413 166.728 94.5064 144.904 90.7481 141.472C86.9904 138.041 83.8724 133.234 82.7832 131.26C79.5156 125.337 75.9622 110.552 87.8887 98.7884C99.8151 87.0254 114.369 90.3465 120.156 93.4779V43.2386C120.02 41.1963 120.647 36.5804 124.241 34.4564ZM136.086 118.394C136.018 125.202 132.001 140.083 116.48 145.148L138.537 166.999C140.443 169.518 146.053 173.862 153.241 171.084C160.43 168.307 161.41 160.805 161.002 157.401V85.309L136.086 61.0052V118.394ZM107.807 106.243C101.039 106.243 95.5528 111.729 95.5528 118.496C95.5528 125.264 101.039 130.75 107.807 130.75C114.574 130.75 120.06 125.264 120.06 118.496C120.06 111.729 114.574 106.243 107.807 106.243Z" fill="#F9F9F9"/>
<path d="M135.99 118.909H135.882C135.872 113.41 134.265 108.636 132.722 105.839C131.632 103.865 128.514 99.0578 124.757 95.627C123.993 94.9298 122.482 93.4733 120.469 91.5078V60.5H135.99V118.909Z" fill="url(#paint0_linear_332_34335)"/>
<path d="M79.6338 118.906C79.7733 124.103 81.3072 128.587 82.7832 131.263C83.8726 133.237 86.9905 138.044 90.748 141.475C91.5251 142.184 93.0774 143.68 95.1445 145.699V175.682H79.623V118.906H79.6338Z" fill="url(#paint1_linear_332_34335)"/>
<path d="M107.807 90.3125C123.372 90.3126 135.99 102.931 135.99 118.496C135.99 134.061 123.372 146.68 107.807 146.68C92.2414 146.68 79.6231 134.061 79.623 118.496C79.623 102.931 92.2414 90.3125 107.807 90.3125ZM107.807 106.242C101.039 106.242 95.5527 111.729 95.5527 118.496C95.5528 125.264 101.039 130.75 107.807 130.75C114.574 130.75 120.061 125.264 120.061 118.496C120.061 111.729 114.574 106.242 107.807 106.242Z" fill="white"/>
<path d="M127.588 98.4219C132.775 103.533 135.991 110.638 135.991 118.495C135.991 131.027 127.812 141.646 116.501 145.311L98.9219 127.089L99 127.01C101.228 129.314 104.35 130.748 107.808 130.748C114.575 130.748 120.061 125.262 120.062 118.495C120.061 115.037 118.627 111.916 116.322 109.688L127.588 98.4219Z" fill="url(#paint2_linear_332_34335)"/>
<path d="M117.004 109.987L116.808 110.184C114.569 107.76 111.366 106.24 107.807 106.24C101.039 106.24 95.553 111.727 95.5527 118.494C95.5529 122.054 97.0723 125.258 99.4961 127.496L88.2275 138.765C82.9229 133.64 79.6231 126.452 79.623 118.494C79.6232 106.079 87.6505 95.5392 98.7979 91.7812L117.004 109.987Z" fill="url(#paint3_linear_332_34335)"/>
</g>
<defs>
<linearGradient id="paint0_linear_332_34335" x1="128.229" y1="60.5" x2="128.229" y2="118.909" gradientUnits="userSpaceOnUse">
<stop stop-opacity="0"/>
<stop offset="1" stop-opacity="0.1"/>
</linearGradient>
<linearGradient id="paint1_linear_332_34335" x1="87.3837" y1="118.906" x2="87.3837" y2="175.682" gradientUnits="userSpaceOnUse">
<stop stop-opacity="0.1"/>
<stop offset="1" stop-opacity="0"/>
</linearGradient>
<linearGradient id="paint2_linear_332_34335" x1="135.991" y1="112.544" x2="111.748" y2="133.873" gradientUnits="userSpaceOnUse">
<stop offset="0.623442" stop-opacity="0"/>
<stop offset="1" stop-opacity="0.2"/>
</linearGradient>
<linearGradient id="paint3_linear_332_34335" x1="106.376" y1="99.7055" x2="79.6229" y2="127.888" gradientUnits="userSpaceOnUse">
<stop stop-opacity="0.2"/>
<stop offset="0.317967" stop-opacity="0"/>
</linearGradient>
<clipPath id="clip0_332_34335">
<rect width="881" height="237" fill="white"/>
</clipPath>
</defs>
</svg>
