<svg xmlns="http://www.w3.org/2000/svg" width="881" height="237" fill="none"><path fill="#000" d="M245.406 119.779v28.348h-10.698v-51.38l34.344 30.392V98.382h10.767v51.312zm69.992 29.302c-14.787 0-26.78-11.584-26.78-25.894 0-14.174 11.993-25.827 26.78-25.827 14.855 0 26.917 11.653 26.917 25.827 0 14.31-12.062 25.894-26.917 25.894m0-41.908c-8.859 0-16.082 7.496-16.082 16.014 0 8.586 7.223 16.149 16.082 16.149 8.927 0 16.082-7.563 16.082-16.149 0-8.518-7.155-16.014-16.082-16.014m66.895.477v10.971h23.782v9.336h-23.782v20.17h-10.834V98.314h37.751v9.336zm45.45 40.477h-10.699V98.314h22.147c10.698 0 17.99 7.087 17.99 17.309 0 7.223-3.953 13.151-10.154 15.809 4.293 5.383 8.859 11.38 12.879 16.695h-12.879c-4.088-5.111-7.836-10.085-11.925-15.537h-7.359zm0-24.872h11.448c3.339 0 7.291-2.453 7.291-7.632 0-2.59-.954-7.973-7.291-7.973h-11.448zm50.938 24.872h-10.767V98.314h10.767zm59.797-12.811c-4.77 8.245-13.629 13.765-23.646 13.765-14.787 0-26.849-11.584-26.849-25.826 0-14.174 12.062-25.758 26.849-25.758 10.017 0 18.876 5.519 23.646 13.628l-10.017 3.884c-2.999-4.293-8.109-7.768-13.629-7.768-8.859 0-16.014 7.496-16.014 16.014s7.155 16.081 16.014 16.081c5.52 0 10.63-3.543 13.629-7.904zm41.551-27.666h-14.446v40.477h-10.835V107.65h-14.515v-9.336h39.796zm18.635 40.477h-10.767V98.314h10.767zm36.355.954c-14.787 0-26.78-11.584-26.78-25.894 0-14.174 11.993-25.827 26.78-25.827 14.855 0 26.917 11.653 26.917 25.827 0 14.31-12.062 25.894-26.917 25.894m0-41.908c-8.859 0-16.082 7.496-16.082 16.014 0 8.586 7.223 16.149 16.082 16.149 8.927 0 16.082-7.563 16.082-16.149 0-8.518-7.155-16.014-16.082-16.014m46.398 12.606v28.348h-10.699v-51.38l34.344 30.392V98.382h10.767v51.312zm81.072 28.348 27.325-51.38 27.326 51.38h-11.789l-3.952-7.632h-23.237l-3.816 7.632zm20.988-16.831h12.743l-6.406-13.016zm51.359 16.831h-10.767V98.314h10.767z"/><path fill="url(#a)" fill-rule="evenodd" d="M126.728 177.141c2.667 3.487 10.872 10.461 22.359 10.461s19.145-7.384 21.538-11.077c1.983-2.324 5.948-8.656 5.948-15.384V81.553c0-.821-.328-2.831-1.641-4.308s-28.58-28.786-42.05-42.256c-1.436-1.299-5.21-3.364-8.82-1.23s-4.24 6.769-4.103 8.82v48.173c-8.025-7.844-23.404-23.172-31.686-31.454-2.667-3.487-10.872-10.461-22.359-10.461S46.77 56.22 44.376 59.913c-1.982 2.325-5.948 8.657-5.948 15.385v79.588c0 .821.328 2.831 1.64 4.308 1.314 1.477 28.581 28.786 42.051 42.256 1.436 1.299 5.21 3.364 8.82 1.23s4.24-6.769 4.103-8.82v-48.174c8.025 7.844 23.405 23.173 31.686 31.455M86.398 99.57c-4.249 4.655-6.239 9.707-6.894 14.459-.31 1.639-.448 3.122-.46 4.344v57.641l-25.025-24.41v-72.41c-.41-3.418.574-10.953 7.794-13.743s12.855 1.573 14.77 4.103L98.67 91.437a27 27 0 0 0-5.768 2.699 26.8 26.8 0 0 0-6.505 5.434M116.333 145l22.087 21.883c1.915 2.53 7.549 6.892 14.769 4.102 7.221-2.79 8.205-10.324 7.795-13.743v-72.41l-25.025-24.41v57.641c-.012 1.229-.153 2.719-.465 4.368-.658 4.743-2.647 9.784-6.885 14.431a26.8 26.8 0 0 1-6.49 5.427 27 27 0 0 1-5.786 2.711m3.528-26.833c0 6.797-5.51 12.307-12.308 12.307a12.25 12.25 0 0 1-7.746-2.743 12.28 12.28 0 0 1-4.56-9.563c0-6.797 5.51-12.308 12.308-12.308a12.25 12.25 0 0 1 7.743 2.741 12.28 12.28 0 0 1 4.563 9.566" clip-rule="evenodd"/><path fill="url(#b)" fill-rule="evenodd" d="M135.754 118.578h.107V59.913h-15.59v31.143c2.023 1.975 3.542 3.437 4.309 4.137 3.774 3.447 6.906 8.274 8 10.257 1.55 2.809 3.164 7.605 3.174 13.128" clip-rule="evenodd"/><path fill="url(#c)" fill-rule="evenodd" d="M79.258 118.579h-.01v57.025h15.588v-30.119c-2.075-2.028-3.635-3.529-4.415-4.242-3.774-3.446-6.906-8.273-8-10.256-1.482-2.687-3.023-7.189-3.163-12.408" clip-rule="evenodd"/><path fill="url(#d)" fill-rule="evenodd" d="m98.626 126.801 17.659 18.303c11.36-3.681 19.574-14.348 19.574-26.934 0-7.892-3.23-15.029-8.439-20.163l-11.315 11.314a12.27 12.27 0 0 1 3.754 8.849c0 6.797-5.511 12.307-12.308 12.307a12.27 12.27 0 0 1-8.848-3.753z" clip-rule="evenodd"/><path fill="url(#e)" fill-rule="evenodd" d="M116.791 109.624 98.506 91.338c-11.198 3.774-19.26 14.361-19.26 26.831 0 7.993 3.312 15.213 8.64 20.36l11.318-11.317a12.28 12.28 0 0 1-3.96-9.043c0-6.798 5.511-12.308 12.308-12.308 3.576 0 6.795 1.525 9.043 3.959z" clip-rule="evenodd"/><defs><linearGradient id="a" x1="54.934" x2="188.909" y1="203.726" y2="48.624" gradientUnits="userSpaceOnUse"><stop offset=".144" stop-color="#114D95"/><stop offset=".823" stop-color="#38D133"/></linearGradient><linearGradient id="b" x1="128.066" x2="128.066" y1="59.913" y2="118.578" gradientUnits="userSpaceOnUse"><stop stop-color="#fff" stop-opacity="0"/><stop offset="1" stop-color="#fff" stop-opacity=".1"/></linearGradient><linearGradient id="c" x1="87.042" x2="87.042" y1="118.579" y2="175.604" gradientUnits="userSpaceOnUse"><stop stop-color="#D9D9D9" stop-opacity=".1"/><stop offset="1" stop-color="#fff" stop-opacity="0"/></linearGradient><linearGradient id="d" x1="135.858" x2="110.027" y1="110.165" y2="139.699" gradientUnits="userSpaceOnUse"><stop offset=".623" stop-color="#fff" stop-opacity="0"/><stop offset="1" stop-color="#fff" stop-opacity=".2"/></linearGradient><linearGradient id="e" x1="106.117" x2="79.245" y1="99.297" y2="127.604" gradientUnits="userSpaceOnUse"><stop stop-color="#fff" stop-opacity=".2"/><stop offset=".318" stop-color="#fff" stop-opacity="0"/></linearGradient></defs></svg>